<?xml version="1.0" encoding="UTF-8"?><svg xmlns="http://www.w3.org/2000/svg" width="600" height="600" viewBox="0 0 600 600"><rect width="600" height="600" fill="#ffffff"/><g fill="#7c3aed"><rect x="145.94594594594597" y="0" width="16.216216216216218" height="16.216216216216218" rx="5.675675675675675" fill="#7c3aed"/><rect x="210.81081081081084" y="0" width="16.216216216216218" height="16.216216216216218" rx="5.675675675675675" fill="#7c3aed"/><rect x="227.02702702702703" y="0" width="16.216216216216218" height="16.216216216216218" rx="5.675675675675675" fill="#7c3aed"/><rect x="291.89189189189193" y="0" width="16.216216216216218" height="16.216216216216218" rx="5.675675675675675" fill="#7c3aed"/><rect x="308.1081081081081" y="0" width="16.216216216216218" height="16.216216216216218" rx="5.675675675675675" fill="#7c3aed"/><rect x="372.972972972973" y="0" width="16.216216216216218" height="16.216216216216218" rx="5.675675675675675" fill="#7c3aed"/><rect x="389.1891891891892" y="0" width="16.216216216216218" height="16.216216216216218" rx="5.675675675675675" fill="#7c3aed"/><rect x="405.4054054054054" y="0" width="16.216216216216218" height="16.216216216216218" rx="5.675675675675675" fill="#7c3aed"/><rect x="421.62162162162167" y="0" width="16.216216216216218" height="16.216216216216218" rx="5.675675675675675" fill="#7c3aed"/><rect x="454.05405405405406" y="0" width="16.216216216216218" height="16.216216216216218" rx="5.675675675675675" fill="#7c3aed"/><rect x="129.72972972972974" y="16.216216216216218" width="16.216216216216218" height="16.216216216216218" rx="5.675675675675675" fill="#7c3aed"/><rect x="145.94594594594597" y="16.216216216216218" width="16.216216216216218" height="16.216216216216218" rx="5.675675675675675" fill="#7c3aed"/><rect x="178.3783783783784" y="16.216216216216218" width="16.216216216216218" height="16.216216216216218" rx="5.675675675675675" fill="#7c3aed"/><rect x="194.5945945945946" y="16.216216216216218" width="16.216216216216218" height="16.216216216216218" rx="5.675675675675675" fill="#7c3aed"/><rect x="210.81081081081084" y="16.216216216216218" width="16.216216216216218" height="16.216216216216218" rx="5.675675675675675" fill="#7c3aed"/><rect x="243.24324324324326" y="16.216216216216218" width="16.216216216216218" height="16.216216216216218" rx="5.675675675675675" fill="#7c3aed"/><rect x="259.4594594594595" y="16.216216216216218" width="16.216216216216218" height="16.216216216216218" rx="5.675675675675675" fill="#7c3aed"/><rect x="308.1081081081081" y="16.216216216216218" width="16.216216216216218" height="16.216216216216218" rx="5.675675675675675" fill="#7c3aed"/><rect x="324.3243243243244" y="16.216216216216218" width="16.216216216216218" height="16.216216216216218" rx="5.675675675675675" fill="#7c3aed"/><rect x="340.5405405405406" y="16.216216216216218" width="16.216216216216218" height="16.216216216216218" rx="5.675675675675675" fill="#7c3aed"/><rect x="356.7567567567568" y="16.216216216216218" width="16.216216216216218" height="16.216216216216218" rx="5.675675675675675" fill="#7c3aed"/><rect x="372.972972972973" y="16.216216216216218" width="16.216216216216218" height="16.216216216216218" rx="5.675675675675675" fill="#7c3aed"/><rect x="389.1891891891892" y="16.216216216216218" width="16.216216216216218" height="16.216216216216218" rx="5.675675675675675" fill="#7c3aed"/><rect x="454.05405405405406" y="16.216216216216218" width="16.216216216216218" height="16.216216216216218" rx="5.675675675675675" fill="#7c3aed"/><rect x="129.72972972972974" y="32.432432432432435" width="16.216216216216218" height="16.216216216216218" rx="5.675675675675675" fill="#7c3aed"/><rect x="162.1621621621622" y="32.432432432432435" width="16.216216216216218" height="16.216216216216218" rx="5.675675675675675" fill="#7c3aed"/><rect x="194.5945945945946" y="32.432432432432435" width="16.216216216216218" height="16.216216216216218" rx="5.675675675675675" fill="#7c3aed"/><rect x="227.02702702702703" y="32.432432432432435" width="16.216216216216218" height="16.216216216216218" rx="5.675675675675675" fill="#7c3aed"/><rect x="275.6756756756757" y="32.432432432432435" width="16.216216216216218" height="16.216216216216218" rx="5.675675675675675" fill="#7c3aed"/><rect x="291.89189189189193" y="32.432432432432435" width="16.216216216216218" height="16.216216216216218" rx="5.675675675675675" fill="#7c3aed"/><rect x="308.1081081081081" y="32.432432432432435" width="16.216216216216218" height="16.216216216216218" rx="5.675675675675675" fill="#7c3aed"/><rect x="340.5405405405406" y="32.432432432432435" width="16.216216216216218" height="16.216216216216218" rx="5.675675675675675" fill="#7c3aed"/><rect x="356.7567567567568" y="32.432432432432435" width="16.216216216216218" height="16.216216216216218" rx="5.675675675675675" fill="#7c3aed"/><rect x="405.4054054054054" y="32.432432432432435" width="16.216216216216218" height="16.216216216216218" rx="5.675675675675675" fill="#7c3aed"/><rect x="437.83783783783787" y="32.432432432432435" width="16.216216216216218" height="16.216216216216218" rx="5.675675675675675" fill="#7c3aed"/><rect x="129.72972972972974" y="48.64864864864865" width="16.216216216216218" height="16.216216216216218" rx="5.675675675675675" fill="#7c3aed"/><rect x="145.94594594594597" y="48.64864864864865" width="16.216216216216218" height="16.216216216216218" rx="5.675675675675675" fill="#7c3aed"/><rect x="162.1621621621622" y="48.64864864864865" width="16.216216216216218" height="16.216216216216218" rx="5.675675675675675" fill="#7c3aed"/><rect x="178.3783783783784" y="48.64864864864865" width="16.216216216216218" height="16.216216216216218" rx="5.675675675675675" fill="#7c3aed"/><rect x="259.4594594594595" y="48.64864864864865" width="16.216216216216218" height="16.216216216216218" rx="5.675675675675675" fill="#7c3aed"/><rect x="275.6756756756757" y="48.64864864864865" width="16.216216216216218" height="16.216216216216218" rx="5.675675675675675" fill="#7c3aed"/><rect x="291.89189189189193" y="48.64864864864865" width="16.216216216216218" height="16.216216216216218" rx="5.675675675675675" fill="#7c3aed"/><rect x="356.7567567567568" y="48.64864864864865" width="16.216216216216218" height="16.216216216216218" rx="5.675675675675675" fill="#7c3aed"/><rect x="372.972972972973" y="48.64864864864865" width="16.216216216216218" height="16.216216216216218" rx="5.675675675675675" fill="#7c3aed"/><rect x="405.4054054054054" y="48.64864864864865" width="16.216216216216218" height="16.216216216216218" rx="5.675675675675675" fill="#7c3aed"/><rect x="421.62162162162167" y="48.64864864864865" width="16.216216216216218" height="16.216216216216218" rx="5.675675675675675" fill="#7c3aed"/><rect x="437.83783783783787" y="48.64864864864865" width="16.216216216216218" height="16.216216216216218" rx="5.675675675675675" fill="#7c3aed"/><rect x="129.72972972972974" y="64.86486486486487" width="16.216216216216218" height="16.216216216216218" rx="5.675675675675675" fill="#7c3aed"/><rect x="162.1621621621622" y="64.86486486486487" width="16.216216216216218" height="16.216216216216218" rx="5.675675675675675" fill="#7c3aed"/><rect x="210.81081081081084" y="64.86486486486487" width="16.216216216216218" height="16.216216216216218" rx="5.675675675675675" fill="#7c3aed"/><rect x="243.24324324324326" y="64.86486486486487" width="16.216216216216218" height="16.216216216216218" rx="5.675675675675675" fill="#7c3aed"/><rect x="259.4594594594595" y="64.86486486486487" width="16.216216216216218" height="16.216216216216218" rx="5.675675675675675" fill="#7c3aed"/><rect x="275.6756756756757" y="64.86486486486487" width="16.216216216216218" height="16.216216216216218" rx="5.675675675675675" fill="#7c3aed"/><rect x="291.89189189189193" y="64.86486486486487" width="16.216216216216218" height="16.216216216216218" rx="5.675675675675675" fill="#7c3aed"/><rect x="308.1081081081081" y="64.86486486486487" width="16.216216216216218" height="16.216216216216218" rx="5.675675675675675" fill="#7c3aed"/><rect x="324.3243243243244" y="64.86486486486487" width="16.216216216216218" height="16.216216216216218" rx="5.675675675675675" fill="#7c3aed"/><rect x="356.7567567567568" y="64.86486486486487" width="16.216216216216218" height="16.216216216216218" rx="5.675675675675675" fill="#7c3aed"/><rect x="372.972972972973" y="64.86486486486487" width="16.216216216216218" height="16.216216216216218" rx="5.675675675675675" fill="#7c3aed"/><rect x="389.1891891891892" y="64.86486486486487" width="16.216216216216218" height="16.216216216216218" rx="5.675675675675675" fill="#7c3aed"/><rect x="405.4054054054054" y="64.86486486486487" width="16.216216216216218" height="16.216216216216218" rx="5.675675675675675" fill="#7c3aed"/><rect x="454.05405405405406" y="64.86486486486487" width="16.216216216216218" height="16.216216216216218" rx="5.675675675675675" fill="#7c3aed"/><rect x="129.72972972972974" y="81.0810810810811" width="16.216216216216218" height="16.216216216216218" rx="5.675675675675675" fill="#7c3aed"/><rect x="162.1621621621622" y="81.0810810810811" width="16.216216216216218" height="16.216216216216218" rx="5.675675675675675" fill="#7c3aed"/><rect x="178.3783783783784" y="81.0810810810811" width="16.216216216216218" height="16.216216216216218" rx="5.675675675675675" fill="#7c3aed"/><rect x="227.02702702702703" y="81.0810810810811" width="16.216216216216218" height="16.216216216216218" rx="5.675675675675675" fill="#7c3aed"/><rect x="243.24324324324326" y="81.0810810810811" width="16.216216216216218" height="16.216216216216218" rx="5.675675675675675" fill="#7c3aed"/><rect x="275.6756756756757" y="81.0810810810811" width="16.216216216216218" height="16.216216216216218" rx="5.675675675675675" fill="#7c3aed"/><rect x="308.1081081081081" y="81.0810810810811" width="16.216216216216218" height="16.216216216216218" rx="5.675675675675675" fill="#7c3aed"/><rect x="356.7567567567568" y="81.0810810810811" width="16.216216216216218" height="16.216216216216218" rx="5.675675675675675" fill="#7c3aed"/><rect x="372.972972972973" y="81.0810810810811" width="16.216216216216218" height="16.216216216216218" rx="5.675675675675675" fill="#7c3aed"/><rect x="389.1891891891892" y="81.0810810810811" width="16.216216216216218" height="16.216216216216218" rx="5.675675675675675" fill="#7c3aed"/><rect x="454.05405405405406" y="81.0810810810811" width="16.216216216216218" height="16.216216216216218" rx="5.675675675675675" fill="#7c3aed"/><rect x="129.72972972972974" y="97.2972972972973" width="16.216216216216218" height="16.216216216216218" rx="5.675675675675675" fill="#7c3aed"/><rect x="162.1621621621622" y="97.2972972972973" width="16.216216216216218" height="16.216216216216218" rx="5.675675675675675" fill="#7c3aed"/><rect x="194.5945945945946" y="97.2972972972973" width="16.216216216216218" height="16.216216216216218" rx="5.675675675675675" fill="#7c3aed"/><rect x="227.02702702702703" y="97.2972972972973" width="16.216216216216218" height="16.216216216216218" rx="5.675675675675675" fill="#7c3aed"/><rect x="259.4594594594595" y="97.2972972972973" width="16.216216216216218" height="16.216216216216218" rx="5.675675675675675" fill="#7c3aed"/><rect x="291.89189189189193" y="97.2972972972973" width="16.216216216216218" height="16.216216216216218" rx="5.675675675675675" fill="#7c3aed"/><rect x="324.3243243243244" y="97.2972972972973" width="16.216216216216218" height="16.216216216216218" rx="5.675675675675675" fill="#7c3aed"/><rect x="356.7567567567568" y="97.2972972972973" width="16.216216216216218" height="16.216216216216218" rx="5.675675675675675" fill="#7c3aed"/><rect x="389.1891891891892" y="97.2972972972973" width="16.216216216216218" height="16.216216216216218" rx="5.675675675675675" fill="#7c3aed"/><rect x="421.62162162162167" y="97.2972972972973" width="16.216216216216218" height="16.216216216216218" rx="5.675675675675675" fill="#7c3aed"/><rect x="454.05405405405406" y="97.2972972972973" width="16.216216216216218" height="16.216216216216218" rx="5.675675675675675" fill="#7c3aed"/><rect x="145.94594594594597" y="113.51351351351352" width="16.216216216216218" height="16.216216216216218" rx="5.675675675675675" fill="#7c3aed"/><rect x="162.1621621621622" y="113.51351351351352" width="16.216216216216218" height="16.216216216216218" rx="5.675675675675675" fill="#7c3aed"/><rect x="194.5945945945946" y="113.51351351351352" width="16.216216216216218" height="16.216216216216218" rx="5.675675675675675" fill="#7c3aed"/><rect x="210.81081081081084" y="113.51351351351352" width="16.216216216216218" height="16.216216216216218" rx="5.675675675675675" fill="#7c3aed"/><rect x="227.02702702702703" y="113.51351351351352" width="16.216216216216218" height="16.216216216216218" rx="5.675675675675675" fill="#7c3aed"/><rect x="243.24324324324326" y="113.51351351351352" width="16.216216216216218" height="16.216216216216218" rx="5.675675675675675" fill="#7c3aed"/><rect x="275.6756756756757" y="113.51351351351352" width="16.216216216216218" height="16.216216216216218" rx="5.675675675675675" fill="#7c3aed"/><rect x="291.89189189189193" y="113.51351351351352" width="16.216216216216218" height="16.216216216216218" rx="5.675675675675675" fill="#7c3aed"/><rect x="372.972972972973" y="113.51351351351352" width="16.216216216216218" height="16.216216216216218" rx="5.675675675675675" fill="#7c3aed"/><rect x="389.1891891891892" y="113.51351351351352" width="16.216216216216218" height="16.216216216216218" rx="5.675675675675675" fill="#7c3aed"/><rect x="421.62162162162167" y="113.51351351351352" width="16.216216216216218" height="16.216216216216218" rx="5.675675675675675" fill="#7c3aed"/><rect x="437.83783783783787" y="113.51351351351352" width="16.216216216216218" height="16.216216216216218" rx="5.675675675675675" fill="#7c3aed"/><rect x="454.05405405405406" y="113.51351351351352" width="16.216216216216218" height="16.216216216216218" rx="5.675675675675675" fill="#7c3aed"/><rect x="32.432432432432435" y="129.72972972972974" width="16.216216216216218" height="16.216216216216218" rx="5.675675675675675" fill="#7c3aed"/><rect x="81.0810810810811" y="129.72972972972974" width="16.216216216216218" height="16.216216216216218" rx="5.675675675675675" fill="#7c3aed"/><rect x="97.2972972972973" y="129.72972972972974" width="16.216216216216218" height="16.216216216216218" rx="5.675675675675675" fill="#7c3aed"/><rect x="113.51351351351352" y="129.72972972972974" width="16.216216216216218" height="16.216216216216218" rx="5.675675675675675" fill="#7c3aed"/><rect x="129.72972972972974" y="129.72972972972974" width="16.216216216216218" height="16.216216216216218" rx="5.675675675675675" fill="#7c3aed"/><rect x="162.1621621621622" y="129.72972972972974" width="16.216216216216218" height="16.216216216216218" rx="5.675675675675675" fill="#7c3aed"/><rect x="210.81081081081084" y="129.72972972972974" width="16.216216216216218" height="16.216216216216218" rx="5.675675675675675" fill="#7c3aed"/><rect x="243.24324324324326" y="129.72972972972974" width="16.216216216216218" height="16.216216216216218" rx="5.675675675675675" fill="#7c3aed"/><rect x="324.3243243243244" y="129.72972972972974" width="16.216216216216218" height="16.216216216216218" rx="5.675675675675675" fill="#7c3aed"/><rect x="340.5405405405406" y="129.72972972972974" width="16.216216216216218" height="16.216216216216218" rx="5.675675675675675" fill="#7c3aed"/><rect x="356.7567567567568" y="129.72972972972974" width="16.216216216216218" height="16.216216216216218" rx="5.675675675675675" fill="#7c3aed"/><rect x="405.4054054054054" y="129.72972972972974" width="16.216216216216218" height="16.216216216216218" rx="5.675675675675675" fill="#7c3aed"/><rect x="421.62162162162167" y="129.72972972972974" width="16.216216216216218" height="16.216216216216218" rx="5.675675675675675" fill="#7c3aed"/><rect x="454.05405405405406" y="129.72972972972974" width="16.216216216216218" height="16.216216216216218" rx="5.675675675675675" fill="#7c3aed"/><rect x="470.2702702702703" y="129.72972972972974" width="16.216216216216218" height="16.216216216216218" rx="5.675675675675675" fill="#7c3aed"/><rect x="502.70270270270277" y="129.72972972972974" width="16.216216216216218" height="16.216216216216218" rx="5.675675675675675" fill="#7c3aed"/><rect x="518.918918918919" y="129.72972972972974" width="16.216216216216218" height="16.216216216216218" rx="5.675675675675675" fill="#7c3aed"/><rect x="535.1351351351352" y="129.72972972972974" width="16.216216216216218" height="16.216216216216218" rx="5.675675675675675" fill="#7c3aed"/><rect x="551.3513513513514" y="129.72972972972974" width="16.216216216216218" height="16.216216216216218" rx="5.675675675675675" fill="#7c3aed"/><rect x="567.5675675675676" y="129.72972972972974" width="16.216216216216218" height="16.216216216216218" rx="5.675675675675675" fill="#7c3aed"/><rect x="0" y="145.94594594594597" width="16.216216216216218" height="16.216216216216218" rx="5.675675675675675" fill="#7c3aed"/><rect x="32.432432432432435" y="145.94594594594597" width="16.216216216216218" height="16.216216216216218" rx="5.675675675675675" fill="#7c3aed"/><rect x="64.86486486486487" y="145.94594594594597" width="16.216216216216218" height="16.216216216216218" rx="5.675675675675675" fill="#7c3aed"/><rect x="81.0810810810811" y="145.94594594594597" width="16.216216216216218" height="16.216216216216218" rx="5.675675675675675" fill="#7c3aed"/><rect x="113.51351351351352" y="145.94594594594597" width="16.216216216216218" height="16.216216216216218" rx="5.675675675675675" fill="#7c3aed"/><rect x="145.94594594594597" y="145.94594594594597" width="16.216216216216218" height="16.216216216216218" rx="5.675675675675675" fill="#7c3aed"/><rect x="162.1621621621622" y="145.94594594594597" width="16.216216216216218" height="16.216216216216218" rx="5.675675675675675" fill="#7c3aed"/><rect x="243.24324324324326" y="145.94594594594597" width="16.216216216216218" height="16.216216216216218" rx="5.675675675675675" fill="#7c3aed"/><rect x="275.6756756756757" y="145.94594594594597" width="16.216216216216218" height="16.216216216216218" rx="5.675675675675675" fill="#7c3aed"/><rect x="291.89189189189193" y="145.94594594594597" width="16.216216216216218" height="16.216216216216218" rx="5.675675675675675" fill="#7c3aed"/><rect x="340.5405405405406" y="145.94594594594597" width="16.216216216216218" height="16.216216216216218" rx="5.675675675675675" fill="#7c3aed"/><rect x="372.972972972973" y="145.94594594594597" width="16.216216216216218" height="16.216216216216218" rx="5.675675675675675" fill="#7c3aed"/><rect x="405.4054054054054" y="145.94594594594597" width="16.216216216216218" height="16.216216216216218" rx="5.675675675675675" fill="#7c3aed"/><rect x="421.62162162162167" y="145.94594594594597" width="16.216216216216218" height="16.216216216216218" rx="5.675675675675675" fill="#7c3aed"/><rect x="454.05405405405406" y="145.94594594594597" width="16.216216216216218" height="16.216216216216218" rx="5.675675675675675" fill="#7c3aed"/><rect x="551.3513513513514" y="145.94594594594597" width="16.216216216216218" height="16.216216216216218" rx="5.675675675675675" fill="#7c3aed"/><rect x="567.5675675675676" y="145.94594594594597" width="16.216216216216218" height="16.216216216216218" rx="5.675675675675675" fill="#7c3aed"/><rect x="583.7837837837839" y="145.94594594594597" width="16.216216216216218" height="16.216216216216218" rx="5.675675675675675" fill="#7c3aed"/><rect x="64.86486486486487" y="162.1621621621622" width="16.216216216216218" height="16.216216216216218" rx="5.675675675675675" fill="#7c3aed"/><rect x="81.0810810810811" y="162.1621621621622" width="16.216216216216218" height="16.216216216216218" rx="5.675675675675675" fill="#7c3aed"/><rect x="97.2972972972973" y="162.1621621621622" width="16.216216216216218" height="16.216216216216218" rx="5.675675675675675" fill="#7c3aed"/><rect x="162.1621621621622" y="162.1621621621622" width="16.216216216216218" height="16.216216216216218" rx="5.675675675675675" fill="#7c3aed"/><rect x="178.3783783783784" y="162.1621621621622" width="16.216216216216218" height="16.216216216216218" rx="5.675675675675675" fill="#7c3aed"/><rect x="194.5945945945946" y="162.1621621621622" width="16.216216216216218" height="16.216216216216218" rx="5.675675675675675" fill="#7c3aed"/><rect x="210.81081081081084" y="162.1621621621622" width="16.216216216216218" height="16.216216216216218" rx="5.675675675675675" fill="#7c3aed"/><rect x="227.02702702702703" y="162.1621621621622" width="16.216216216216218" height="16.216216216216218" rx="5.675675675675675" fill="#7c3aed"/><rect x="243.24324324324326" y="162.1621621621622" width="16.216216216216218" height="16.216216216216218" rx="5.675675675675675" fill="#7c3aed"/><rect x="308.1081081081081" y="162.1621621621622" width="16.216216216216218" height="16.216216216216218" rx="5.675675675675675" fill="#7c3aed"/><rect x="454.05405405405406" y="162.1621621621622" width="16.216216216216218" height="16.216216216216218" rx="5.675675675675675" fill="#7c3aed"/><rect x="470.2702702702703" y="162.1621621621622" width="16.216216216216218" height="16.216216216216218" rx="5.675675675675675" fill="#7c3aed"/><rect x="486.4864864864865" y="162.1621621621622" width="16.216216216216218" height="16.216216216216218" rx="5.675675675675675" fill="#7c3aed"/><rect x="502.70270270270277" y="162.1621621621622" width="16.216216216216218" height="16.216216216216218" rx="5.675675675675675" fill="#7c3aed"/><rect x="518.918918918919" y="162.1621621621622" width="16.216216216216218" height="16.216216216216218" rx="5.675675675675675" fill="#7c3aed"/><rect x="551.3513513513514" y="162.1621621621622" width="16.216216216216218" height="16.216216216216218" rx="5.675675675675675" fill="#7c3aed"/><rect x="583.7837837837839" y="162.1621621621622" width="16.216216216216218" height="16.216216216216218" rx="5.675675675675675" fill="#7c3aed"/><rect x="0" y="178.3783783783784" width="16.216216216216218" height="16.216216216216218" rx="5.675675675675675" fill="#7c3aed"/><rect x="16.216216216216218" y="178.3783783783784" width="16.216216216216218" height="16.216216216216218" rx="5.675675675675675" fill="#7c3aed"/><rect x="32.432432432432435" y="178.3783783783784" width="16.216216216216218" height="16.216216216216218" rx="5.675675675675675" fill="#7c3aed"/><rect x="64.86486486486487" y="178.3783783783784" width="16.216216216216218" height="16.216216216216218" rx="5.675675675675675" fill="#7c3aed"/><rect x="81.0810810810811" y="178.3783783783784" width="16.216216216216218" height="16.216216216216218" rx="5.675675675675675" fill="#7c3aed"/><rect x="162.1621621621622" y="178.3783783783784" width="16.216216216216218" height="16.216216216216218" rx="5.675675675675675" fill="#7c3aed"/><rect x="178.3783783783784" y="178.3783783783784" width="16.216216216216218" height="16.216216216216218" rx="5.675675675675675" fill="#7c3aed"/><rect x="194.5945945945946" y="178.3783783783784" width="16.216216216216218" height="16.216216216216218" rx="5.675675675675675" fill="#7c3aed"/><rect x="227.02702702702703" y="178.3783783783784" width="16.216216216216218" height="16.216216216216218" rx="5.675675675675675" fill="#7c3aed"/><rect x="243.24324324324326" y="178.3783783783784" width="16.216216216216218" height="16.216216216216218" rx="5.675675675675675" fill="#7c3aed"/><rect x="259.4594594594595" y="178.3783783783784" width="16.216216216216218" height="16.216216216216218" rx="5.675675675675675" fill="#7c3aed"/><rect x="340.5405405405406" y="178.3783783783784" width="16.216216216216218" height="16.216216216216218" rx="5.675675675675675" fill="#7c3aed"/><rect x="421.62162162162167" y="178.3783783783784" width="16.216216216216218" height="16.216216216216218" rx="5.675675675675675" fill="#7c3aed"/><rect x="437.83783783783787" y="178.3783783783784" width="16.216216216216218" height="16.216216216216218" rx="5.675675675675675" fill="#7c3aed"/><rect x="454.05405405405406" y="178.3783783783784" width="16.216216216216218" height="16.216216216216218" rx="5.675675675675675" fill="#7c3aed"/><rect x="502.70270270270277" y="178.3783783783784" width="16.216216216216218" height="16.216216216216218" rx="5.675675675675675" fill="#7c3aed"/><rect x="535.1351351351352" y="178.3783783783784" width="16.216216216216218" height="16.216216216216218" rx="5.675675675675675" fill="#7c3aed"/><rect x="567.5675675675676" y="178.3783783783784" width="16.216216216216218" height="16.216216216216218" rx="5.675675675675675" fill="#7c3aed"/><rect x="0" y="194.5945945945946" width="16.216216216216218" height="16.216216216216218" rx="5.675675675675675" fill="#7c3aed"/><rect x="16.216216216216218" y="194.5945945945946" width="16.216216216216218" height="16.216216216216218" rx="5.675675675675675" fill="#7c3aed"/><rect x="32.432432432432435" y="194.5945945945946" width="16.216216216216218" height="16.216216216216218" rx="5.675675675675675" fill="#7c3aed"/><rect x="48.64864864864865" y="194.5945945945946" width="16.216216216216218" height="16.216216216216218" rx="5.675675675675675" fill="#7c3aed"/><rect x="64.86486486486487" y="194.5945945945946" width="16.216216216216218" height="16.216216216216218" rx="5.675675675675675" fill="#7c3aed"/><rect x="81.0810810810811" y="194.5945945945946" width="16.216216216216218" height="16.216216216216218" rx="5.675675675675675" fill="#7c3aed"/><rect x="97.2972972972973" y="194.5945945945946" width="16.216216216216218" height="16.216216216216218" rx="5.675675675675675" fill="#7c3aed"/><rect x="113.51351351351352" y="194.5945945945946" width="16.216216216216218" height="16.216216216216218" rx="5.675675675675675" fill="#7c3aed"/><rect x="129.72972972972974" y="194.5945945945946" width="16.216216216216218" height="16.216216216216218" rx="5.675675675675675" fill="#7c3aed"/><rect x="162.1621621621622" y="194.5945945945946" width="16.216216216216218" height="16.216216216216218" rx="5.675675675675675" fill="#7c3aed"/><rect x="210.81081081081084" y="194.5945945945946" width="16.216216216216218" height="16.216216216216218" rx="5.675675675675675" fill="#7c3aed"/><rect x="227.02702702702703" y="194.5945945945946" width="16.216216216216218" height="16.216216216216218" rx="5.675675675675675" fill="#7c3aed"/><rect x="259.4594594594595" y="194.5945945945946" width="16.216216216216218" height="16.216216216216218" rx="5.675675675675675" fill="#7c3aed"/><rect x="291.89189189189193" y="194.5945945945946" width="16.216216216216218" height="16.216216216216218" rx="5.675675675675675" fill="#7c3aed"/><rect x="308.1081081081081" y="194.5945945945946" width="16.216216216216218" height="16.216216216216218" rx="5.675675675675675" fill="#7c3aed"/><rect x="324.3243243243244" y="194.5945945945946" width="16.216216216216218" height="16.216216216216218" rx="5.675675675675675" fill="#7c3aed"/><rect x="356.7567567567568" y="194.5945945945946" width="16.216216216216218" height="16.216216216216218" rx="5.675675675675675" fill="#7c3aed"/><rect x="486.4864864864865" y="194.5945945945946" width="16.216216216216218" height="16.216216216216218" rx="5.675675675675675" fill="#7c3aed"/><rect x="535.1351351351352" y="194.5945945945946" width="16.216216216216218" height="16.216216216216218" rx="5.675675675675675" fill="#7c3aed"/><rect x="567.5675675675676" y="194.5945945945946" width="16.216216216216218" height="16.216216216216218" rx="5.675675675675675" fill="#7c3aed"/><rect x="16.216216216216218" y="210.81081081081084" width="16.216216216216218" height="16.216216216216218" rx="5.675675675675675" fill="#7c3aed"/><rect x="32.432432432432435" y="210.81081081081084" width="16.216216216216218" height="16.216216216216218" rx="5.675675675675675" fill="#7c3aed"/><rect x="81.0810810810811" y="210.81081081081084" width="16.216216216216218" height="16.216216216216218" rx="5.675675675675675" fill="#7c3aed"/><rect x="113.51351351351352" y="210.81081081081084" width="16.216216216216218" height="16.216216216216218" rx="5.675675675675675" fill="#7c3aed"/><rect x="162.1621621621622" y="210.81081081081084" width="16.216216216216218" height="16.216216216216218" rx="5.675675675675675" fill="#7c3aed"/><rect x="227.02702702702703" y="210.81081081081084" width="16.216216216216218" height="16.216216216216218" rx="5.675675675675675" fill="#7c3aed"/><rect x="243.24324324324326" y="210.81081081081084" width="16.216216216216218" height="16.216216216216218" rx="5.675675675675675" fill="#7c3aed"/><rect x="275.6756756756757" y="210.81081081081084" width="16.216216216216218" height="16.216216216216218" rx="5.675675675675675" fill="#7c3aed"/><rect x="291.89189189189193" y="210.81081081081084" width="16.216216216216218" height="16.216216216216218" rx="5.675675675675675" fill="#7c3aed"/><rect x="308.1081081081081" y="210.81081081081084" width="16.216216216216218" height="16.216216216216218" rx="5.675675675675675" fill="#7c3aed"/><rect x="324.3243243243244" y="210.81081081081084" width="16.216216216216218" height="16.216216216216218" rx="5.675675675675675" fill="#7c3aed"/><rect x="356.7567567567568" y="210.81081081081084" width="16.216216216216218" height="16.216216216216218" rx="5.675675675675675" fill="#7c3aed"/><rect x="405.4054054054054" y="210.81081081081084" width="16.216216216216218" height="16.216216216216218" rx="5.675675675675675" fill="#7c3aed"/><rect x="437.83783783783787" y="210.81081081081084" width="16.216216216216218" height="16.216216216216218" rx="5.675675675675675" fill="#7c3aed"/><rect x="454.05405405405406" y="210.81081081081084" width="16.216216216216218" height="16.216216216216218" rx="5.675675675675675" fill="#7c3aed"/><rect x="470.2702702702703" y="210.81081081081084" width="16.216216216216218" height="16.216216216216218" rx="5.675675675675675" fill="#7c3aed"/><rect x="486.4864864864865" y="210.81081081081084" width="16.216216216216218" height="16.216216216216218" rx="5.675675675675675" fill="#7c3aed"/><rect x="551.3513513513514" y="210.81081081081084" width="16.216216216216218" height="16.216216216216218" rx="5.675675675675675" fill="#7c3aed"/><rect x="583.7837837837839" y="210.81081081081084" width="16.216216216216218" height="16.216216216216218" rx="5.675675675675675" fill="#7c3aed"/><rect x="16.216216216216218" y="227.02702702702703" width="16.216216216216218" height="16.216216216216218" rx="5.675675675675675" fill="#7c3aed"/><rect x="32.432432432432435" y="227.02702702702703" width="16.216216216216218" height="16.216216216216218" rx="5.675675675675675" fill="#7c3aed"/><rect x="81.0810810810811" y="227.02702702702703" width="16.216216216216218" height="16.216216216216218" rx="5.675675675675675" fill="#7c3aed"/><rect x="97.2972972972973" y="227.02702702702703" width="16.216216216216218" height="16.216216216216218" rx="5.675675675675675" fill="#7c3aed"/><rect x="113.51351351351352" y="227.02702702702703" width="16.216216216216218" height="16.216216216216218" rx="5.675675675675675" fill="#7c3aed"/><rect x="178.3783783783784" y="227.02702702702703" width="16.216216216216218" height="16.216216216216218" rx="5.675675675675675" fill="#7c3aed"/><rect x="210.81081081081084" y="227.02702702702703" width="16.216216216216218" height="16.216216216216218" rx="5.675675675675675" fill="#7c3aed"/><rect x="227.02702702702703" y="227.02702702702703" width="16.216216216216218" height="16.216216216216218" rx="5.675675675675675" fill="#7c3aed"/><rect x="243.24324324324326" y="227.02702702702703" width="16.216216216216218" height="16.216216216216218" rx="5.675675675675675" fill="#7c3aed"/><rect x="275.6756756756757" y="227.02702702702703" width="16.216216216216218" height="16.216216216216218" rx="5.675675675675675" fill="#7c3aed"/><rect x="308.1081081081081" y="227.02702702702703" width="16.216216216216218" height="16.216216216216218" rx="5.675675675675675" fill="#7c3aed"/><rect x="324.3243243243244" y="227.02702702702703" width="16.216216216216218" height="16.216216216216218" rx="5.675675675675675" fill="#7c3aed"/><rect x="340.5405405405406" y="227.02702702702703" width="16.216216216216218" height="16.216216216216218" rx="5.675675675675675" fill="#7c3aed"/><rect x="372.972972972973" y="227.02702702702703" width="16.216216216216218" height="16.216216216216218" rx="5.675675675675675" fill="#7c3aed"/><rect x="389.1891891891892" y="227.02702702702703" width="16.216216216216218" height="16.216216216216218" rx="5.675675675675675" fill="#7c3aed"/><rect x="437.83783783783787" y="227.02702702702703" width="16.216216216216218" height="16.216216216216218" rx="5.675675675675675" fill="#7c3aed"/><rect x="518.918918918919" y="227.02702702702703" width="16.216216216216218" height="16.216216216216218" rx="5.675675675675675" fill="#7c3aed"/><rect x="535.1351351351352" y="227.02702702702703" width="16.216216216216218" height="16.216216216216218" rx="5.675675675675675" fill="#7c3aed"/><rect x="551.3513513513514" y="227.02702702702703" width="16.216216216216218" height="16.216216216216218" rx="5.675675675675675" fill="#7c3aed"/><rect x="583.7837837837839" y="227.02702702702703" width="16.216216216216218" height="16.216216216216218" rx="5.675675675675675" fill="#7c3aed"/><rect x="64.86486486486487" y="243.24324324324326" width="16.216216216216218" height="16.216216216216218" rx="5.675675675675675" fill="#7c3aed"/><rect x="81.0810810810811" y="243.24324324324326" width="16.216216216216218" height="16.216216216216218" rx="5.675675675675675" fill="#7c3aed"/><rect x="113.51351351351352" y="243.24324324324326" width="16.216216216216218" height="16.216216216216218" rx="5.675675675675675" fill="#7c3aed"/><rect x="145.94594594594597" y="243.24324324324326" width="16.216216216216218" height="16.216216216216218" rx="5.675675675675675" fill="#7c3aed"/><rect x="194.5945945945946" y="243.24324324324326" width="16.216216216216218" height="16.216216216216218" rx="5.675675675675675" fill="#7c3aed"/><rect x="210.81081081081084" y="243.24324324324326" width="16.216216216216218" height="16.216216216216218" rx="5.675675675675675" fill="#7c3aed"/><rect x="227.02702702702703" y="243.24324324324326" width="16.216216216216218" height="16.216216216216218" rx="5.675675675675675" fill="#7c3aed"/><rect x="243.24324324324326" y="243.24324324324326" width="16.216216216216218" height="16.216216216216218" rx="5.675675675675675" fill="#7c3aed"/><rect x="259.4594594594595" y="243.24324324324326" width="16.216216216216218" height="16.216216216216218" rx="5.675675675675675" fill="#7c3aed"/><rect x="275.6756756756757" y="243.24324324324326" width="16.216216216216218" height="16.216216216216218" rx="5.675675675675675" fill="#7c3aed"/><rect x="291.89189189189193" y="243.24324324324326" width="16.216216216216218" height="16.216216216216218" rx="5.675675675675675" fill="#7c3aed"/><rect x="308.1081081081081" y="243.24324324324326" width="16.216216216216218" height="16.216216216216218" rx="5.675675675675675" fill="#7c3aed"/><rect x="372.972972972973" y="243.24324324324326" width="16.216216216216218" height="16.216216216216218" rx="5.675675675675675" fill="#7c3aed"/><rect x="421.62162162162167" y="243.24324324324326" width="16.216216216216218" height="16.216216216216218" rx="5.675675675675675" fill="#7c3aed"/><rect x="437.83783783783787" y="243.24324324324326" width="16.216216216216218" height="16.216216216216218" rx="5.675675675675675" fill="#7c3aed"/><rect x="454.05405405405406" y="243.24324324324326" width="16.216216216216218" height="16.216216216216218" rx="5.675675675675675" fill="#7c3aed"/><rect x="486.4864864864865" y="243.24324324324326" width="16.216216216216218" height="16.216216216216218" rx="5.675675675675675" fill="#7c3aed"/><rect x="535.1351351351352" y="243.24324324324326" width="16.216216216216218" height="16.216216216216218" rx="5.675675675675675" fill="#7c3aed"/><rect x="16.216216216216218" y="259.4594594594595" width="16.216216216216218" height="16.216216216216218" rx="5.675675675675675" fill="#7c3aed"/><rect x="32.432432432432435" y="259.4594594594595" width="16.216216216216218" height="16.216216216216218" rx="5.675675675675675" fill="#7c3aed"/><rect x="48.64864864864865" y="259.4594594594595" width="16.216216216216218" height="16.216216216216218" rx="5.675675675675675" fill="#7c3aed"/><rect x="64.86486486486487" y="259.4594594594595" width="16.216216216216218" height="16.216216216216218" rx="5.675675675675675" fill="#7c3aed"/><rect x="97.2972972972973" y="259.4594594594595" width="16.216216216216218" height="16.216216216216218" rx="5.675675675675675" fill="#7c3aed"/><rect x="113.51351351351352" y="259.4594594594595" width="16.216216216216218" height="16.216216216216218" rx="5.675675675675675" fill="#7c3aed"/><rect x="162.1621621621622" y="259.4594594594595" width="16.216216216216218" height="16.216216216216218" rx="5.675675675675675" fill="#7c3aed"/><rect x="243.24324324324326" y="259.4594594594595" width="16.216216216216218" height="16.216216216216218" rx="5.675675675675675" fill="#7c3aed"/><rect x="259.4594594594595" y="259.4594594594595" width="16.216216216216218" height="16.216216216216218" rx="5.675675675675675" fill="#7c3aed"/><rect x="275.6756756756757" y="259.4594594594595" width="16.216216216216218" height="16.216216216216218" rx="5.675675675675675" fill="#7c3aed"/><rect x="324.3243243243244" y="259.4594594594595" width="16.216216216216218" height="16.216216216216218" rx="5.675675675675675" fill="#7c3aed"/><rect x="340.5405405405406" y="259.4594594594595" width="16.216216216216218" height="16.216216216216218" rx="5.675675675675675" fill="#7c3aed"/><rect x="356.7567567567568" y="259.4594594594595" width="16.216216216216218" height="16.216216216216218" rx="5.675675675675675" fill="#7c3aed"/><rect x="372.972972972973" y="259.4594594594595" width="16.216216216216218" height="16.216216216216218" rx="5.675675675675675" fill="#7c3aed"/><rect x="405.4054054054054" y="259.4594594594595" width="16.216216216216218" height="16.216216216216218" rx="5.675675675675675" fill="#7c3aed"/><rect x="454.05405405405406" y="259.4594594594595" width="16.216216216216218" height="16.216216216216218" rx="5.675675675675675" fill="#7c3aed"/><rect x="486.4864864864865" y="259.4594594594595" width="16.216216216216218" height="16.216216216216218" rx="5.675675675675675" fill="#7c3aed"/><rect x="502.70270270270277" y="259.4594594594595" width="16.216216216216218" height="16.216216216216218" rx="5.675675675675675" fill="#7c3aed"/><rect x="583.7837837837839" y="259.4594594594595" width="16.216216216216218" height="16.216216216216218" rx="5.675675675675675" fill="#7c3aed"/><rect x="0" y="275.6756756756757" width="16.216216216216218" height="16.216216216216218" rx="5.675675675675675" fill="#7c3aed"/><rect x="16.216216216216218" y="275.6756756756757" width="16.216216216216218" height="16.216216216216218" rx="5.675675675675675" fill="#7c3aed"/><rect x="113.51351351351352" y="275.6756756756757" width="16.216216216216218" height="16.216216216216218" rx="5.675675675675675" fill="#7c3aed"/><rect x="129.72972972972974" y="275.6756756756757" width="16.216216216216218" height="16.216216216216218" rx="5.675675675675675" fill="#7c3aed"/><rect x="178.3783783783784" y="275.6756756756757" width="16.216216216216218" height="16.216216216216218" rx="5.675675675675675" fill="#7c3aed"/><rect x="194.5945945945946" y="275.6756756756757" width="16.216216216216218" height="16.216216216216218" rx="5.675675675675675" fill="#7c3aed"/><rect x="210.81081081081084" y="275.6756756756757" width="16.216216216216218" height="16.216216216216218" rx="5.675675675675675" fill="#7c3aed"/><rect x="275.6756756756757" y="275.6756756756757" width="16.216216216216218" height="16.216216216216218" rx="5.675675675675675" fill="#7c3aed"/><rect x="291.89189189189193" y="275.6756756756757" width="16.216216216216218" height="16.216216216216218" rx="5.675675675675675" fill="#7c3aed"/><rect x="308.1081081081081" y="275.6756756756757" width="16.216216216216218" height="16.216216216216218" rx="5.675675675675675" fill="#7c3aed"/><rect x="324.3243243243244" y="275.6756756756757" width="16.216216216216218" height="16.216216216216218" rx="5.675675675675675" fill="#7c3aed"/><rect x="340.5405405405406" y="275.6756756756757" width="16.216216216216218" height="16.216216216216218" rx="5.675675675675675" fill="#7c3aed"/><rect x="356.7567567567568" y="275.6756756756757" width="16.216216216216218" height="16.216216216216218" rx="5.675675675675675" fill="#7c3aed"/><rect x="389.1891891891892" y="275.6756756756757" width="16.216216216216218" height="16.216216216216218" rx="5.675675675675675" fill="#7c3aed"/><rect x="437.83783783783787" y="275.6756756756757" width="16.216216216216218" height="16.216216216216218" rx="5.675675675675675" fill="#7c3aed"/><rect x="454.05405405405406" y="275.6756756756757" width="16.216216216216218" height="16.216216216216218" rx="5.675675675675675" fill="#7c3aed"/><rect x="486.4864864864865" y="275.6756756756757" width="16.216216216216218" height="16.216216216216218" rx="5.675675675675675" fill="#7c3aed"/><rect x="551.3513513513514" y="275.6756756756757" width="16.216216216216218" height="16.216216216216218" rx="5.675675675675675" fill="#7c3aed"/><rect x="583.7837837837839" y="275.6756756756757" width="16.216216216216218" height="16.216216216216218" rx="5.675675675675675" fill="#7c3aed"/><rect x="16.216216216216218" y="291.89189189189193" width="16.216216216216218" height="16.216216216216218" rx="5.675675675675675" fill="#7c3aed"/><rect x="48.64864864864865" y="291.89189189189193" width="16.216216216216218" height="16.216216216216218" rx="5.675675675675675" fill="#7c3aed"/><rect x="64.86486486486487" y="291.89189189189193" width="16.216216216216218" height="16.216216216216218" rx="5.675675675675675" fill="#7c3aed"/><rect x="81.0810810810811" y="291.89189189189193" width="16.216216216216218" height="16.216216216216218" rx="5.675675675675675" fill="#7c3aed"/><rect x="97.2972972972973" y="291.89189189189193" width="16.216216216216218" height="16.216216216216218" rx="5.675675675675675" fill="#7c3aed"/><rect x="129.72972972972974" y="291.89189189189193" width="16.216216216216218" height="16.216216216216218" rx="5.675675675675675" fill="#7c3aed"/><rect x="145.94594594594597" y="291.89189189189193" width="16.216216216216218" height="16.216216216216218" rx="5.675675675675675" fill="#7c3aed"/><rect x="162.1621621621622" y="291.89189189189193" width="16.216216216216218" height="16.216216216216218" rx="5.675675675675675" fill="#7c3aed"/><rect x="194.5945945945946" y="291.89189189189193" width="16.216216216216218" height="16.216216216216218" rx="5.675675675675675" fill="#7c3aed"/><rect x="259.4594594594595" y="291.89189189189193" width="16.216216216216218" height="16.216216216216218" rx="5.675675675675675" fill="#7c3aed"/><rect x="308.1081081081081" y="291.89189189189193" width="16.216216216216218" height="16.216216216216218" rx="5.675675675675675" fill="#7c3aed"/><rect x="340.5405405405406" y="291.89189189189193" width="16.216216216216218" height="16.216216216216218" rx="5.675675675675675" fill="#7c3aed"/><rect x="372.972972972973" y="291.89189189189193" width="16.216216216216218" height="16.216216216216218" rx="5.675675675675675" fill="#7c3aed"/><rect x="389.1891891891892" y="291.89189189189193" width="16.216216216216218" height="16.216216216216218" rx="5.675675675675675" fill="#7c3aed"/><rect x="421.62162162162167" y="291.89189189189193" width="16.216216216216218" height="16.216216216216218" rx="5.675675675675675" fill="#7c3aed"/><rect x="437.83783783783787" y="291.89189189189193" width="16.216216216216218" height="16.216216216216218" rx="5.675675675675675" fill="#7c3aed"/><rect x="470.2702702702703" y="291.89189189189193" width="16.216216216216218" height="16.216216216216218" rx="5.675675675675675" fill="#7c3aed"/><rect x="502.70270270270277" y="291.89189189189193" width="16.216216216216218" height="16.216216216216218" rx="5.675675675675675" fill="#7c3aed"/><rect x="535.1351351351352" y="291.89189189189193" width="16.216216216216218" height="16.216216216216218" rx="5.675675675675675" fill="#7c3aed"/><rect x="551.3513513513514" y="291.89189189189193" width="16.216216216216218" height="16.216216216216218" rx="5.675675675675675" fill="#7c3aed"/><rect x="583.7837837837839" y="291.89189189189193" width="16.216216216216218" height="16.216216216216218" rx="5.675675675675675" fill="#7c3aed"/><rect x="0" y="308.1081081081081" width="16.216216216216218" height="16.216216216216218" rx="5.675675675675675" fill="#7c3aed"/><rect x="32.432432432432435" y="308.1081081081081" width="16.216216216216218" height="16.216216216216218" rx="5.675675675675675" fill="#7c3aed"/><rect x="64.86486486486487" y="308.1081081081081" width="16.216216216216218" height="16.216216216216218" rx="5.675675675675675" fill="#7c3aed"/><rect x="145.94594594594597" y="308.1081081081081" width="16.216216216216218" height="16.216216216216218" rx="5.675675675675675" fill="#7c3aed"/><rect x="162.1621621621622" y="308.1081081081081" width="16.216216216216218" height="16.216216216216218" rx="5.675675675675675" fill="#7c3aed"/><rect x="178.3783783783784" y="308.1081081081081" width="16.216216216216218" height="16.216216216216218" rx="5.675675675675675" fill="#7c3aed"/><rect x="227.02702702702703" y="308.1081081081081" width="16.216216216216218" height="16.216216216216218" rx="5.675675675675675" fill="#7c3aed"/><rect x="275.6756756756757" y="308.1081081081081" width="16.216216216216218" height="16.216216216216218" rx="5.675675675675675" fill="#7c3aed"/><rect x="291.89189189189193" y="308.1081081081081" width="16.216216216216218" height="16.216216216216218" rx="5.675675675675675" fill="#7c3aed"/><rect x="324.3243243243244" y="308.1081081081081" width="16.216216216216218" height="16.216216216216218" rx="5.675675675675675" fill="#7c3aed"/><rect x="340.5405405405406" y="308.1081081081081" width="16.216216216216218" height="16.216216216216218" rx="5.675675675675675" fill="#7c3aed"/><rect x="372.972972972973" y="308.1081081081081" width="16.216216216216218" height="16.216216216216218" rx="5.675675675675675" fill="#7c3aed"/><rect x="437.83783783783787" y="308.1081081081081" width="16.216216216216218" height="16.216216216216218" rx="5.675675675675675" fill="#7c3aed"/><rect x="454.05405405405406" y="308.1081081081081" width="16.216216216216218" height="16.216216216216218" rx="5.675675675675675" fill="#7c3aed"/><rect x="470.2702702702703" y="308.1081081081081" width="16.216216216216218" height="16.216216216216218" rx="5.675675675675675" fill="#7c3aed"/><rect x="535.1351351351352" y="308.1081081081081" width="16.216216216216218" height="16.216216216216218" rx="5.675675675675675" fill="#7c3aed"/><rect x="567.5675675675676" y="308.1081081081081" width="16.216216216216218" height="16.216216216216218" rx="5.675675675675675" fill="#7c3aed"/><rect x="16.216216216216218" y="324.3243243243244" width="16.216216216216218" height="16.216216216216218" rx="5.675675675675675" fill="#7c3aed"/><rect x="32.432432432432435" y="324.3243243243244" width="16.216216216216218" height="16.216216216216218" rx="5.675675675675675" fill="#7c3aed"/><rect x="48.64864864864865" y="324.3243243243244" width="16.216216216216218" height="16.216216216216218" rx="5.675675675675675" fill="#7c3aed"/><rect x="81.0810810810811" y="324.3243243243244" width="16.216216216216218" height="16.216216216216218" rx="5.675675675675675" fill="#7c3aed"/><rect x="97.2972972972973" y="324.3243243243244" width="16.216216216216218" height="16.216216216216218" rx="5.675675675675675" fill="#7c3aed"/><rect x="129.72972972972974" y="324.3243243243244" width="16.216216216216218" height="16.216216216216218" rx="5.675675675675675" fill="#7c3aed"/><rect x="145.94594594594597" y="324.3243243243244" width="16.216216216216218" height="16.216216216216218" rx="5.675675675675675" fill="#7c3aed"/><rect x="162.1621621621622" y="324.3243243243244" width="16.216216216216218" height="16.216216216216218" rx="5.675675675675675" fill="#7c3aed"/><rect x="194.5945945945946" y="324.3243243243244" width="16.216216216216218" height="16.216216216216218" rx="5.675675675675675" fill="#7c3aed"/><rect x="210.81081081081084" y="324.3243243243244" width="16.216216216216218" height="16.216216216216218" rx="5.675675675675675" fill="#7c3aed"/><rect x="227.02702702702703" y="324.3243243243244" width="16.216216216216218" height="16.216216216216218" rx="5.675675675675675" fill="#7c3aed"/><rect x="259.4594594594595" y="324.3243243243244" width="16.216216216216218" height="16.216216216216218" rx="5.675675675675675" fill="#7c3aed"/><rect x="275.6756756756757" y="324.3243243243244" width="16.216216216216218" height="16.216216216216218" rx="5.675675675675675" fill="#7c3aed"/><rect x="324.3243243243244" y="324.3243243243244" width="16.216216216216218" height="16.216216216216218" rx="5.675675675675675" fill="#7c3aed"/><rect x="356.7567567567568" y="324.3243243243244" width="16.216216216216218" height="16.216216216216218" rx="5.675675675675675" fill="#7c3aed"/><rect x="389.1891891891892" y="324.3243243243244" width="16.216216216216218" height="16.216216216216218" rx="5.675675675675675" fill="#7c3aed"/><rect x="421.62162162162167" y="324.3243243243244" width="16.216216216216218" height="16.216216216216218" rx="5.675675675675675" fill="#7c3aed"/><rect x="454.05405405405406" y="324.3243243243244" width="16.216216216216218" height="16.216216216216218" rx="5.675675675675675" fill="#7c3aed"/><rect x="470.2702702702703" y="324.3243243243244" width="16.216216216216218" height="16.216216216216218" rx="5.675675675675675" fill="#7c3aed"/><rect x="486.4864864864865" y="324.3243243243244" width="16.216216216216218" height="16.216216216216218" rx="5.675675675675675" fill="#7c3aed"/><rect x="583.7837837837839" y="324.3243243243244" width="16.216216216216218" height="16.216216216216218" rx="5.675675675675675" fill="#7c3aed"/><rect x="0" y="340.5405405405406" width="16.216216216216218" height="16.216216216216218" rx="5.675675675675675" fill="#7c3aed"/><rect x="16.216216216216218" y="340.5405405405406" width="16.216216216216218" height="16.216216216216218" rx="5.675675675675675" fill="#7c3aed"/><rect x="32.432432432432435" y="340.5405405405406" width="16.216216216216218" height="16.216216216216218" rx="5.675675675675675" fill="#7c3aed"/><rect x="48.64864864864865" y="340.5405405405406" width="16.216216216216218" height="16.216216216216218" rx="5.675675675675675" fill="#7c3aed"/><rect x="194.5945945945946" y="340.5405405405406" width="16.216216216216218" height="16.216216216216218" rx="5.675675675675675" fill="#7c3aed"/><rect x="227.02702702702703" y="340.5405405405406" width="16.216216216216218" height="16.216216216216218" rx="5.675675675675675" fill="#7c3aed"/><rect x="259.4594594594595" y="340.5405405405406" width="16.216216216216218" height="16.216216216216218" rx="5.675675675675675" fill="#7c3aed"/><rect x="324.3243243243244" y="340.5405405405406" width="16.216216216216218" height="16.216216216216218" rx="5.675675675675675" fill="#7c3aed"/><rect x="405.4054054054054" y="340.5405405405406" width="16.216216216216218" height="16.216216216216218" rx="5.675675675675675" fill="#7c3aed"/><rect x="437.83783783783787" y="340.5405405405406" width="16.216216216216218" height="16.216216216216218" rx="5.675675675675675" fill="#7c3aed"/><rect x="470.2702702702703" y="340.5405405405406" width="16.216216216216218" height="16.216216216216218" rx="5.675675675675675" fill="#7c3aed"/><rect x="486.4864864864865" y="340.5405405405406" width="16.216216216216218" height="16.216216216216218" rx="5.675675675675675" fill="#7c3aed"/><rect x="502.70270270270277" y="340.5405405405406" width="16.216216216216218" height="16.216216216216218" rx="5.675675675675675" fill="#7c3aed"/><rect x="567.5675675675676" y="340.5405405405406" width="16.216216216216218" height="16.216216216216218" rx="5.675675675675675" fill="#7c3aed"/><rect x="583.7837837837839" y="340.5405405405406" width="16.216216216216218" height="16.216216216216218" rx="5.675675675675675" fill="#7c3aed"/><rect x="32.432432432432435" y="356.7567567567568" width="16.216216216216218" height="16.216216216216218" rx="5.675675675675675" fill="#7c3aed"/><rect x="81.0810810810811" y="356.7567567567568" width="16.216216216216218" height="16.216216216216218" rx="5.675675675675675" fill="#7c3aed"/><rect x="97.2972972972973" y="356.7567567567568" width="16.216216216216218" height="16.216216216216218" rx="5.675675675675675" fill="#7c3aed"/><rect x="129.72972972972974" y="356.7567567567568" width="16.216216216216218" height="16.216216216216218" rx="5.675675675675675" fill="#7c3aed"/><rect x="145.94594594594597" y="356.7567567567568" width="16.216216216216218" height="16.216216216216218" rx="5.675675675675675" fill="#7c3aed"/><rect x="162.1621621621622" y="356.7567567567568" width="16.216216216216218" height="16.216216216216218" rx="5.675675675675675" fill="#7c3aed"/><rect x="178.3783783783784" y="356.7567567567568" width="16.216216216216218" height="16.216216216216218" rx="5.675675675675675" fill="#7c3aed"/><rect x="194.5945945945946" y="356.7567567567568" width="16.216216216216218" height="16.216216216216218" rx="5.675675675675675" fill="#7c3aed"/><rect x="210.81081081081084" y="356.7567567567568" width="16.216216216216218" height="16.216216216216218" rx="5.675675675675675" fill="#7c3aed"/><rect x="259.4594594594595" y="356.7567567567568" width="16.216216216216218" height="16.216216216216218" rx="5.675675675675675" fill="#7c3aed"/><rect x="275.6756756756757" y="356.7567567567568" width="16.216216216216218" height="16.216216216216218" rx="5.675675675675675" fill="#7c3aed"/><rect x="324.3243243243244" y="356.7567567567568" width="16.216216216216218" height="16.216216216216218" rx="5.675675675675675" fill="#7c3aed"/><rect x="356.7567567567568" y="356.7567567567568" width="16.216216216216218" height="16.216216216216218" rx="5.675675675675675" fill="#7c3aed"/><rect x="389.1891891891892" y="356.7567567567568" width="16.216216216216218" height="16.216216216216218" rx="5.675675675675675" fill="#7c3aed"/><rect x="437.83783783783787" y="356.7567567567568" width="16.216216216216218" height="16.216216216216218" rx="5.675675675675675" fill="#7c3aed"/><rect x="454.05405405405406" y="356.7567567567568" width="16.216216216216218" height="16.216216216216218" rx="5.675675675675675" fill="#7c3aed"/><rect x="502.70270270270277" y="356.7567567567568" width="16.216216216216218" height="16.216216216216218" rx="5.675675675675675" fill="#7c3aed"/><rect x="518.918918918919" y="356.7567567567568" width="16.216216216216218" height="16.216216216216218" rx="5.675675675675675" fill="#7c3aed"/><rect x="583.7837837837839" y="356.7567567567568" width="16.216216216216218" height="16.216216216216218" rx="5.675675675675675" fill="#7c3aed"/><rect x="0" y="372.972972972973" width="16.216216216216218" height="16.216216216216218" rx="5.675675675675675" fill="#7c3aed"/><rect x="32.432432432432435" y="372.972972972973" width="16.216216216216218" height="16.216216216216218" rx="5.675675675675675" fill="#7c3aed"/><rect x="48.64864864864865" y="372.972972972973" width="16.216216216216218" height="16.216216216216218" rx="5.675675675675675" fill="#7c3aed"/><rect x="81.0810810810811" y="372.972972972973" width="16.216216216216218" height="16.216216216216218" rx="5.675675675675675" fill="#7c3aed"/><rect x="113.51351351351352" y="372.972972972973" width="16.216216216216218" height="16.216216216216218" rx="5.675675675675675" fill="#7c3aed"/><rect x="194.5945945945946" y="372.972972972973" width="16.216216216216218" height="16.216216216216218" rx="5.675675675675675" fill="#7c3aed"/><rect x="259.4594594594595" y="372.972972972973" width="16.216216216216218" height="16.216216216216218" rx="5.675675675675675" fill="#7c3aed"/><rect x="324.3243243243244" y="372.972972972973" width="16.216216216216218" height="16.216216216216218" rx="5.675675675675675" fill="#7c3aed"/><rect x="340.5405405405406" y="372.972972972973" width="16.216216216216218" height="16.216216216216218" rx="5.675675675675675" fill="#7c3aed"/><rect x="356.7567567567568" y="372.972972972973" width="16.216216216216218" height="16.216216216216218" rx="5.675675675675675" fill="#7c3aed"/><rect x="372.972972972973" y="372.972972972973" width="16.216216216216218" height="16.216216216216218" rx="5.675675675675675" fill="#7c3aed"/><rect x="389.1891891891892" y="372.972972972973" width="16.216216216216218" height="16.216216216216218" rx="5.675675675675675" fill="#7c3aed"/><rect x="405.4054054054054" y="372.972972972973" width="16.216216216216218" height="16.216216216216218" rx="5.675675675675675" fill="#7c3aed"/><rect x="437.83783783783787" y="372.972972972973" width="16.216216216216218" height="16.216216216216218" rx="5.675675675675675" fill="#7c3aed"/><rect x="486.4864864864865" y="372.972972972973" width="16.216216216216218" height="16.216216216216218" rx="5.675675675675675" fill="#7c3aed"/><rect x="502.70270270270277" y="372.972972972973" width="16.216216216216218" height="16.216216216216218" rx="5.675675675675675" fill="#7c3aed"/><rect x="535.1351351351352" y="372.972972972973" width="16.216216216216218" height="16.216216216216218" rx="5.675675675675675" fill="#7c3aed"/><rect x="16.216216216216218" y="389.1891891891892" width="16.216216216216218" height="16.216216216216218" rx="5.675675675675675" fill="#7c3aed"/><rect x="48.64864864864865" y="389.1891891891892" width="16.216216216216218" height="16.216216216216218" rx="5.675675675675675" fill="#7c3aed"/><rect x="64.86486486486487" y="389.1891891891892" width="16.216216216216218" height="16.216216216216218" rx="5.675675675675675" fill="#7c3aed"/><rect x="81.0810810810811" y="389.1891891891892" width="16.216216216216218" height="16.216216216216218" rx="5.675675675675675" fill="#7c3aed"/><rect x="97.2972972972973" y="389.1891891891892" width="16.216216216216218" height="16.216216216216218" rx="5.675675675675675" fill="#7c3aed"/><rect x="113.51351351351352" y="389.1891891891892" width="16.216216216216218" height="16.216216216216218" rx="5.675675675675675" fill="#7c3aed"/><rect x="129.72972972972974" y="389.1891891891892" width="16.216216216216218" height="16.216216216216218" rx="5.675675675675675" fill="#7c3aed"/><rect x="178.3783783783784" y="389.1891891891892" width="16.216216216216218" height="16.216216216216218" rx="5.675675675675675" fill="#7c3aed"/><rect x="227.02702702702703" y="389.1891891891892" width="16.216216216216218" height="16.216216216216218" rx="5.675675675675675" fill="#7c3aed"/><rect x="243.24324324324326" y="389.1891891891892" width="16.216216216216218" height="16.216216216216218" rx="5.675675675675675" fill="#7c3aed"/><rect x="259.4594594594595" y="389.1891891891892" width="16.216216216216218" height="16.216216216216218" rx="5.675675675675675" fill="#7c3aed"/><rect x="291.89189189189193" y="389.1891891891892" width="16.216216216216218" height="16.216216216216218" rx="5.675675675675675" fill="#7c3aed"/><rect x="389.1891891891892" y="389.1891891891892" width="16.216216216216218" height="16.216216216216218" rx="5.675675675675675" fill="#7c3aed"/><rect x="405.4054054054054" y="389.1891891891892" width="16.216216216216218" height="16.216216216216218" rx="5.675675675675675" fill="#7c3aed"/><rect x="502.70270270270277" y="389.1891891891892" width="16.216216216216218" height="16.216216216216218" rx="5.675675675675675" fill="#7c3aed"/><rect x="535.1351351351352" y="389.1891891891892" width="16.216216216216218" height="16.216216216216218" rx="5.675675675675675" fill="#7c3aed"/><rect x="583.7837837837839" y="389.1891891891892" width="16.216216216216218" height="16.216216216216218" rx="5.675675675675675" fill="#7c3aed"/><rect x="16.216216216216218" y="405.4054054054054" width="16.216216216216218" height="16.216216216216218" rx="5.675675675675675" fill="#7c3aed"/><rect x="32.432432432432435" y="405.4054054054054" width="16.216216216216218" height="16.216216216216218" rx="5.675675675675675" fill="#7c3aed"/><rect x="113.51351351351352" y="405.4054054054054" width="16.216216216216218" height="16.216216216216218" rx="5.675675675675675" fill="#7c3aed"/><rect x="145.94594594594597" y="405.4054054054054" width="16.216216216216218" height="16.216216216216218" rx="5.675675675675675" fill="#7c3aed"/><rect x="162.1621621621622" y="405.4054054054054" width="16.216216216216218" height="16.216216216216218" rx="5.675675675675675" fill="#7c3aed"/><rect x="194.5945945945946" y="405.4054054054054" width="16.216216216216218" height="16.216216216216218" rx="5.675675675675675" fill="#7c3aed"/><rect x="210.81081081081084" y="405.4054054054054" width="16.216216216216218" height="16.216216216216218" rx="5.675675675675675" fill="#7c3aed"/><rect x="227.02702702702703" y="405.4054054054054" width="16.216216216216218" height="16.216216216216218" rx="5.675675675675675" fill="#7c3aed"/><rect x="243.24324324324326" y="405.4054054054054" width="16.216216216216218" height="16.216216216216218" rx="5.675675675675675" fill="#7c3aed"/><rect x="259.4594594594595" y="405.4054054054054" width="16.216216216216218" height="16.216216216216218" rx="5.675675675675675" fill="#7c3aed"/><rect x="291.89189189189193" y="405.4054054054054" width="16.216216216216218" height="16.216216216216218" rx="5.675675675675675" fill="#7c3aed"/><rect x="308.1081081081081" y="405.4054054054054" width="16.216216216216218" height="16.216216216216218" rx="5.675675675675675" fill="#7c3aed"/><rect x="389.1891891891892" y="405.4054054054054" width="16.216216216216218" height="16.216216216216218" rx="5.675675675675675" fill="#7c3aed"/><rect x="502.70270270270277" y="405.4054054054054" width="16.216216216216218" height="16.216216216216218" rx="5.675675675675675" fill="#7c3aed"/><rect x="535.1351351351352" y="405.4054054054054" width="16.216216216216218" height="16.216216216216218" rx="5.675675675675675" fill="#7c3aed"/><rect x="551.3513513513514" y="405.4054054054054" width="16.216216216216218" height="16.216216216216218" rx="5.675675675675675" fill="#7c3aed"/><rect x="583.7837837837839" y="405.4054054054054" width="16.216216216216218" height="16.216216216216218" rx="5.675675675675675" fill="#7c3aed"/><rect x="0" y="421.62162162162167" width="16.216216216216218" height="16.216216216216218" rx="5.675675675675675" fill="#7c3aed"/><rect x="16.216216216216218" y="421.62162162162167" width="16.216216216216218" height="16.216216216216218" rx="5.675675675675675" fill="#7c3aed"/><rect x="64.86486486486487" y="421.62162162162167" width="16.216216216216218" height="16.216216216216218" rx="5.675675675675675" fill="#7c3aed"/><rect x="97.2972972972973" y="421.62162162162167" width="16.216216216216218" height="16.216216216216218" rx="5.675675675675675" fill="#7c3aed"/><rect x="113.51351351351352" y="421.62162162162167" width="16.216216216216218" height="16.216216216216218" rx="5.675675675675675" fill="#7c3aed"/><rect x="162.1621621621622" y="421.62162162162167" width="16.216216216216218" height="16.216216216216218" rx="5.675675675675675" fill="#7c3aed"/><rect x="194.5945945945946" y="421.62162162162167" width="16.216216216216218" height="16.216216216216218" rx="5.675675675675675" fill="#7c3aed"/><rect x="210.81081081081084" y="421.62162162162167" width="16.216216216216218" height="16.216216216216218" rx="5.675675675675675" fill="#7c3aed"/><rect x="227.02702702702703" y="421.62162162162167" width="16.216216216216218" height="16.216216216216218" rx="5.675675675675675" fill="#7c3aed"/><rect x="243.24324324324326" y="421.62162162162167" width="16.216216216216218" height="16.216216216216218" rx="5.675675675675675" fill="#7c3aed"/><rect x="259.4594594594595" y="421.62162162162167" width="16.216216216216218" height="16.216216216216218" rx="5.675675675675675" fill="#7c3aed"/><rect x="291.89189189189193" y="421.62162162162167" width="16.216216216216218" height="16.216216216216218" rx="5.675675675675675" fill="#7c3aed"/><rect x="324.3243243243244" y="421.62162162162167" width="16.216216216216218" height="16.216216216216218" rx="5.675675675675675" fill="#7c3aed"/><rect x="340.5405405405406" y="421.62162162162167" width="16.216216216216218" height="16.216216216216218" rx="5.675675675675675" fill="#7c3aed"/><rect x="389.1891891891892" y="421.62162162162167" width="16.216216216216218" height="16.216216216216218" rx="5.675675675675675" fill="#7c3aed"/><rect x="437.83783783783787" y="421.62162162162167" width="16.216216216216218" height="16.216216216216218" rx="5.675675675675675" fill="#7c3aed"/><rect x="470.2702702702703" y="421.62162162162167" width="16.216216216216218" height="16.216216216216218" rx="5.675675675675675" fill="#7c3aed"/><rect x="486.4864864864865" y="421.62162162162167" width="16.216216216216218" height="16.216216216216218" rx="5.675675675675675" fill="#7c3aed"/><rect x="518.918918918919" y="421.62162162162167" width="16.216216216216218" height="16.216216216216218" rx="5.675675675675675" fill="#7c3aed"/><rect x="535.1351351351352" y="421.62162162162167" width="16.216216216216218" height="16.216216216216218" rx="5.675675675675675" fill="#7c3aed"/><rect x="551.3513513513514" y="421.62162162162167" width="16.216216216216218" height="16.216216216216218" rx="5.675675675675675" fill="#7c3aed"/><rect x="583.7837837837839" y="421.62162162162167" width="16.216216216216218" height="16.216216216216218" rx="5.675675675675675" fill="#7c3aed"/><rect x="32.432432432432435" y="437.83783783783787" width="16.216216216216218" height="16.216216216216218" rx="5.675675675675675" fill="#7c3aed"/><rect x="48.64864864864865" y="437.83783783783787" width="16.216216216216218" height="16.216216216216218" rx="5.675675675675675" fill="#7c3aed"/><rect x="81.0810810810811" y="437.83783783783787" width="16.216216216216218" height="16.216216216216218" rx="5.675675675675675" fill="#7c3aed"/><rect x="129.72972972972974" y="437.83783783783787" width="16.216216216216218" height="16.216216216216218" rx="5.675675675675675" fill="#7c3aed"/><rect x="145.94594594594597" y="437.83783783783787" width="16.216216216216218" height="16.216216216216218" rx="5.675675675675675" fill="#7c3aed"/><rect x="210.81081081081084" y="437.83783783783787" width="16.216216216216218" height="16.216216216216218" rx="5.675675675675675" fill="#7c3aed"/><rect x="227.02702702702703" y="437.83783783783787" width="16.216216216216218" height="16.216216216216218" rx="5.675675675675675" fill="#7c3aed"/><rect x="243.24324324324326" y="437.83783783783787" width="16.216216216216218" height="16.216216216216218" rx="5.675675675675675" fill="#7c3aed"/><rect x="275.6756756756757" y="437.83783783783787" width="16.216216216216218" height="16.216216216216218" rx="5.675675675675675" fill="#7c3aed"/><rect x="291.89189189189193" y="437.83783783783787" width="16.216216216216218" height="16.216216216216218" rx="5.675675675675675" fill="#7c3aed"/><rect x="340.5405405405406" y="437.83783783783787" width="16.216216216216218" height="16.216216216216218" rx="5.675675675675675" fill="#7c3aed"/><rect x="372.972972972973" y="437.83783783783787" width="16.216216216216218" height="16.216216216216218" rx="5.675675675675675" fill="#7c3aed"/><rect x="389.1891891891892" y="437.83783783783787" width="16.216216216216218" height="16.216216216216218" rx="5.675675675675675" fill="#7c3aed"/><rect x="421.62162162162167" y="437.83783783783787" width="16.216216216216218" height="16.216216216216218" rx="5.675675675675675" fill="#7c3aed"/><rect x="470.2702702702703" y="437.83783783783787" width="16.216216216216218" height="16.216216216216218" rx="5.675675675675675" fill="#7c3aed"/><rect x="486.4864864864865" y="437.83783783783787" width="16.216216216216218" height="16.216216216216218" rx="5.675675675675675" fill="#7c3aed"/><rect x="502.70270270270277" y="437.83783783783787" width="16.216216216216218" height="16.216216216216218" rx="5.675675675675675" fill="#7c3aed"/><rect x="535.1351351351352" y="437.83783783783787" width="16.216216216216218" height="16.216216216216218" rx="5.675675675675675" fill="#7c3aed"/><rect x="567.5675675675676" y="437.83783783783787" width="16.216216216216218" height="16.216216216216218" rx="5.675675675675675" fill="#7c3aed"/><rect x="0" y="454.05405405405406" width="16.216216216216218" height="16.216216216216218" rx="5.675675675675675" fill="#7c3aed"/><rect x="16.216216216216218" y="454.05405405405406" width="16.216216216216218" height="16.216216216216218" rx="5.675675675675675" fill="#7c3aed"/><rect x="32.432432432432435" y="454.05405405405406" width="16.216216216216218" height="16.216216216216218" rx="5.675675675675675" fill="#7c3aed"/><rect x="81.0810810810811" y="454.05405405405406" width="16.216216216216218" height="16.216216216216218" rx="5.675675675675675" fill="#7c3aed"/><rect x="97.2972972972973" y="454.05405405405406" width="16.216216216216218" height="16.216216216216218" rx="5.675675675675675" fill="#7c3aed"/><rect x="129.72972972972974" y="454.05405405405406" width="16.216216216216218" height="16.216216216216218" rx="5.675675675675675" fill="#7c3aed"/><rect x="162.1621621621622" y="454.05405405405406" width="16.216216216216218" height="16.216216216216218" rx="5.675675675675675" fill="#7c3aed"/><rect x="194.5945945945946" y="454.05405405405406" width="16.216216216216218" height="16.216216216216218" rx="5.675675675675675" fill="#7c3aed"/><rect x="210.81081081081084" y="454.05405405405406" width="16.216216216216218" height="16.216216216216218" rx="5.675675675675675" fill="#7c3aed"/><rect x="259.4594594594595" y="454.05405405405406" width="16.216216216216218" height="16.216216216216218" rx="5.675675675675675" fill="#7c3aed"/><rect x="275.6756756756757" y="454.05405405405406" width="16.216216216216218" height="16.216216216216218" rx="5.675675675675675" fill="#7c3aed"/><rect x="291.89189189189193" y="454.05405405405406" width="16.216216216216218" height="16.216216216216218" rx="5.675675675675675" fill="#7c3aed"/><rect x="308.1081081081081" y="454.05405405405406" width="16.216216216216218" height="16.216216216216218" rx="5.675675675675675" fill="#7c3aed"/><rect x="324.3243243243244" y="454.05405405405406" width="16.216216216216218" height="16.216216216216218" rx="5.675675675675675" fill="#7c3aed"/><rect x="437.83783783783787" y="454.05405405405406" width="16.216216216216218" height="16.216216216216218" rx="5.675675675675675" fill="#7c3aed"/><rect x="454.05405405405406" y="454.05405405405406" width="16.216216216216218" height="16.216216216216218" rx="5.675675675675675" fill="#7c3aed"/><rect x="470.2702702702703" y="454.05405405405406" width="16.216216216216218" height="16.216216216216218" rx="5.675675675675675" fill="#7c3aed"/><rect x="486.4864864864865" y="454.05405405405406" width="16.216216216216218" height="16.216216216216218" rx="5.675675675675675" fill="#7c3aed"/><rect x="502.70270270270277" y="454.05405405405406" width="16.216216216216218" height="16.216216216216218" rx="5.675675675675675" fill="#7c3aed"/><rect x="518.918918918919" y="454.05405405405406" width="16.216216216216218" height="16.216216216216218" rx="5.675675675675675" fill="#7c3aed"/><rect x="535.1351351351352" y="454.05405405405406" width="16.216216216216218" height="16.216216216216218" rx="5.675675675675675" fill="#7c3aed"/><rect x="583.7837837837839" y="454.05405405405406" width="16.216216216216218" height="16.216216216216218" rx="5.675675675675675" fill="#7c3aed"/><rect x="129.72972972972974" y="470.2702702702703" width="16.216216216216218" height="16.216216216216218" rx="5.675675675675675" fill="#7c3aed"/><rect x="145.94594594594597" y="470.2702702702703" width="16.216216216216218" height="16.216216216216218" rx="5.675675675675675" fill="#7c3aed"/><rect x="162.1621621621622" y="470.2702702702703" width="16.216216216216218" height="16.216216216216218" rx="5.675675675675675" fill="#7c3aed"/><rect x="178.3783783783784" y="470.2702702702703" width="16.216216216216218" height="16.216216216216218" rx="5.675675675675675" fill="#7c3aed"/><rect x="210.81081081081084" y="470.2702702702703" width="16.216216216216218" height="16.216216216216218" rx="5.675675675675675" fill="#7c3aed"/><rect x="259.4594594594595" y="470.2702702702703" width="16.216216216216218" height="16.216216216216218" rx="5.675675675675675" fill="#7c3aed"/><rect x="324.3243243243244" y="470.2702702702703" width="16.216216216216218" height="16.216216216216218" rx="5.675675675675675" fill="#7c3aed"/><rect x="356.7567567567568" y="470.2702702702703" width="16.216216216216218" height="16.216216216216218" rx="5.675675675675675" fill="#7c3aed"/><rect x="372.972972972973" y="470.2702702702703" width="16.216216216216218" height="16.216216216216218" rx="5.675675675675675" fill="#7c3aed"/><rect x="389.1891891891892" y="470.2702702702703" width="16.216216216216218" height="16.216216216216218" rx="5.675675675675675" fill="#7c3aed"/><rect x="405.4054054054054" y="470.2702702702703" width="16.216216216216218" height="16.216216216216218" rx="5.675675675675675" fill="#7c3aed"/><rect x="454.05405405405406" y="470.2702702702703" width="16.216216216216218" height="16.216216216216218" rx="5.675675675675675" fill="#7c3aed"/><rect x="518.918918918919" y="470.2702702702703" width="16.216216216216218" height="16.216216216216218" rx="5.675675675675675" fill="#7c3aed"/><rect x="535.1351351351352" y="470.2702702702703" width="16.216216216216218" height="16.216216216216218" rx="5.675675675675675" fill="#7c3aed"/><rect x="567.5675675675676" y="470.2702702702703" width="16.216216216216218" height="16.216216216216218" rx="5.675675675675675" fill="#7c3aed"/><rect x="583.7837837837839" y="470.2702702702703" width="16.216216216216218" height="16.216216216216218" rx="5.675675675675675" fill="#7c3aed"/><rect x="129.72972972972974" y="486.4864864864865" width="16.216216216216218" height="16.216216216216218" rx="5.675675675675675" fill="#7c3aed"/><rect x="259.4594594594595" y="486.4864864864865" width="16.216216216216218" height="16.216216216216218" rx="5.675675675675675" fill="#7c3aed"/><rect x="275.6756756756757" y="486.4864864864865" width="16.216216216216218" height="16.216216216216218" rx="5.675675675675675" fill="#7c3aed"/><rect x="291.89189189189193" y="486.4864864864865" width="16.216216216216218" height="16.216216216216218" rx="5.675675675675675" fill="#7c3aed"/><rect x="308.1081081081081" y="486.4864864864865" width="16.216216216216218" height="16.216216216216218" rx="5.675675675675675" fill="#7c3aed"/><rect x="340.5405405405406" y="486.4864864864865" width="16.216216216216218" height="16.216216216216218" rx="5.675675675675675" fill="#7c3aed"/><rect x="372.972972972973" y="486.4864864864865" width="16.216216216216218" height="16.216216216216218" rx="5.675675675675675" fill="#7c3aed"/><rect x="405.4054054054054" y="486.4864864864865" width="16.216216216216218" height="16.216216216216218" rx="5.675675675675675" fill="#7c3aed"/><rect x="454.05405405405406" y="486.4864864864865" width="16.216216216216218" height="16.216216216216218" rx="5.675675675675675" fill="#7c3aed"/><rect x="486.4864864864865" y="486.4864864864865" width="16.216216216216218" height="16.216216216216218" rx="5.675675675675675" fill="#7c3aed"/><rect x="518.918918918919" y="486.4864864864865" width="16.216216216216218" height="16.216216216216218" rx="5.675675675675675" fill="#7c3aed"/><rect x="535.1351351351352" y="486.4864864864865" width="16.216216216216218" height="16.216216216216218" rx="5.675675675675675" fill="#7c3aed"/><rect x="551.3513513513514" y="486.4864864864865" width="16.216216216216218" height="16.216216216216218" rx="5.675675675675675" fill="#7c3aed"/><rect x="583.7837837837839" y="486.4864864864865" width="16.216216216216218" height="16.216216216216218" rx="5.675675675675675" fill="#7c3aed"/><rect x="129.72972972972974" y="502.70270270270277" width="16.216216216216218" height="16.216216216216218" rx="5.675675675675675" fill="#7c3aed"/><rect x="162.1621621621622" y="502.70270270270277" width="16.216216216216218" height="16.216216216216218" rx="5.675675675675675" fill="#7c3aed"/><rect x="178.3783783783784" y="502.70270270270277" width="16.216216216216218" height="16.216216216216218" rx="5.675675675675675" fill="#7c3aed"/><rect x="210.81081081081084" y="502.70270270270277" width="16.216216216216218" height="16.216216216216218" rx="5.675675675675675" fill="#7c3aed"/><rect x="243.24324324324326" y="502.70270270270277" width="16.216216216216218" height="16.216216216216218" rx="5.675675675675675" fill="#7c3aed"/><rect x="259.4594594594595" y="502.70270270270277" width="16.216216216216218" height="16.216216216216218" rx="5.675675675675675" fill="#7c3aed"/><rect x="275.6756756756757" y="502.70270270270277" width="16.216216216216218" height="16.216216216216218" rx="5.675675675675675" fill="#7c3aed"/><rect x="291.89189189189193" y="502.70270270270277" width="16.216216216216218" height="16.216216216216218" rx="5.675675675675675" fill="#7c3aed"/><rect x="356.7567567567568" y="502.70270270270277" width="16.216216216216218" height="16.216216216216218" rx="5.675675675675675" fill="#7c3aed"/><rect x="372.972972972973" y="502.70270270270277" width="16.216216216216218" height="16.216216216216218" rx="5.675675675675675" fill="#7c3aed"/><rect x="454.05405405405406" y="502.70270270270277" width="16.216216216216218" height="16.216216216216218" rx="5.675675675675675" fill="#7c3aed"/><rect x="518.918918918919" y="502.70270270270277" width="16.216216216216218" height="16.216216216216218" rx="5.675675675675675" fill="#7c3aed"/><rect x="535.1351351351352" y="502.70270270270277" width="16.216216216216218" height="16.216216216216218" rx="5.675675675675675" fill="#7c3aed"/><rect x="567.5675675675676" y="502.70270270270277" width="16.216216216216218" height="16.216216216216218" rx="5.675675675675675" fill="#7c3aed"/><rect x="162.1621621621622" y="518.918918918919" width="16.216216216216218" height="16.216216216216218" rx="5.675675675675675" fill="#7c3aed"/><rect x="194.5945945945946" y="518.918918918919" width="16.216216216216218" height="16.216216216216218" rx="5.675675675675675" fill="#7c3aed"/><rect x="259.4594594594595" y="518.918918918919" width="16.216216216216218" height="16.216216216216218" rx="5.675675675675675" fill="#7c3aed"/><rect x="291.89189189189193" y="518.918918918919" width="16.216216216216218" height="16.216216216216218" rx="5.675675675675675" fill="#7c3aed"/><rect x="324.3243243243244" y="518.918918918919" width="16.216216216216218" height="16.216216216216218" rx="5.675675675675675" fill="#7c3aed"/><rect x="340.5405405405406" y="518.918918918919" width="16.216216216216218" height="16.216216216216218" rx="5.675675675675675" fill="#7c3aed"/><rect x="356.7567567567568" y="518.918918918919" width="16.216216216216218" height="16.216216216216218" rx="5.675675675675675" fill="#7c3aed"/><rect x="372.972972972973" y="518.918918918919" width="16.216216216216218" height="16.216216216216218" rx="5.675675675675675" fill="#7c3aed"/><rect x="437.83783783783787" y="518.918918918919" width="16.216216216216218" height="16.216216216216218" rx="5.675675675675675" fill="#7c3aed"/><rect x="454.05405405405406" y="518.918918918919" width="16.216216216216218" height="16.216216216216218" rx="5.675675675675675" fill="#7c3aed"/><rect x="470.2702702702703" y="518.918918918919" width="16.216216216216218" height="16.216216216216218" rx="5.675675675675675" fill="#7c3aed"/><rect x="486.4864864864865" y="518.918918918919" width="16.216216216216218" height="16.216216216216218" rx="5.675675675675675" fill="#7c3aed"/><rect x="502.70270270270277" y="518.918918918919" width="16.216216216216218" height="16.216216216216218" rx="5.675675675675675" fill="#7c3aed"/><rect x="518.918918918919" y="518.918918918919" width="16.216216216216218" height="16.216216216216218" rx="5.675675675675675" fill="#7c3aed"/><rect x="567.5675675675676" y="518.918918918919" width="16.216216216216218" height="16.216216216216218" rx="5.675675675675675" fill="#7c3aed"/><rect x="145.94594594594597" y="535.1351351351352" width="16.216216216216218" height="16.216216216216218" rx="5.675675675675675" fill="#7c3aed"/><rect x="194.5945945945946" y="535.1351351351352" width="16.216216216216218" height="16.216216216216218" rx="5.675675675675675" fill="#7c3aed"/><rect x="243.24324324324326" y="535.1351351351352" width="16.216216216216218" height="16.216216216216218" rx="5.675675675675675" fill="#7c3aed"/><rect x="275.6756756756757" y="535.1351351351352" width="16.216216216216218" height="16.216216216216218" rx="5.675675675675675" fill="#7c3aed"/><rect x="308.1081081081081" y="535.1351351351352" width="16.216216216216218" height="16.216216216216218" rx="5.675675675675675" fill="#7c3aed"/><rect x="324.3243243243244" y="535.1351351351352" width="16.216216216216218" height="16.216216216216218" rx="5.675675675675675" fill="#7c3aed"/><rect x="340.5405405405406" y="535.1351351351352" width="16.216216216216218" height="16.216216216216218" rx="5.675675675675675" fill="#7c3aed"/><rect x="356.7567567567568" y="535.1351351351352" width="16.216216216216218" height="16.216216216216218" rx="5.675675675675675" fill="#7c3aed"/><rect x="405.4054054054054" y="535.1351351351352" width="16.216216216216218" height="16.216216216216218" rx="5.675675675675675" fill="#7c3aed"/><rect x="421.62162162162167" y="535.1351351351352" width="16.216216216216218" height="16.216216216216218" rx="5.675675675675675" fill="#7c3aed"/><rect x="454.05405405405406" y="535.1351351351352" width="16.216216216216218" height="16.216216216216218" rx="5.675675675675675" fill="#7c3aed"/><rect x="518.918918918919" y="535.1351351351352" width="16.216216216216218" height="16.216216216216218" rx="5.675675675675675" fill="#7c3aed"/><rect x="535.1351351351352" y="535.1351351351352" width="16.216216216216218" height="16.216216216216218" rx="5.675675675675675" fill="#7c3aed"/><rect x="583.7837837837839" y="535.1351351351352" width="16.216216216216218" height="16.216216216216218" rx="5.675675675675675" fill="#7c3aed"/><rect x="129.72972972972974" y="551.3513513513514" width="16.216216216216218" height="16.216216216216218" rx="5.675675675675675" fill="#7c3aed"/><rect x="145.94594594594597" y="551.3513513513514" width="16.216216216216218" height="16.216216216216218" rx="5.675675675675675" fill="#7c3aed"/><rect x="162.1621621621622" y="551.3513513513514" width="16.216216216216218" height="16.216216216216218" rx="5.675675675675675" fill="#7c3aed"/><rect x="194.5945945945946" y="551.3513513513514" width="16.216216216216218" height="16.216216216216218" rx="5.675675675675675" fill="#7c3aed"/><rect x="259.4594594594595" y="551.3513513513514" width="16.216216216216218" height="16.216216216216218" rx="5.675675675675675" fill="#7c3aed"/><rect x="275.6756756756757" y="551.3513513513514" width="16.216216216216218" height="16.216216216216218" rx="5.675675675675675" fill="#7c3aed"/><rect x="291.89189189189193" y="551.3513513513514" width="16.216216216216218" height="16.216216216216218" rx="5.675675675675675" fill="#7c3aed"/><rect x="324.3243243243244" y="551.3513513513514" width="16.216216216216218" height="16.216216216216218" rx="5.675675675675675" fill="#7c3aed"/><rect x="340.5405405405406" y="551.3513513513514" width="16.216216216216218" height="16.216216216216218" rx="5.675675675675675" fill="#7c3aed"/><rect x="372.972972972973" y="551.3513513513514" width="16.216216216216218" height="16.216216216216218" rx="5.675675675675675" fill="#7c3aed"/><rect x="405.4054054054054" y="551.3513513513514" width="16.216216216216218" height="16.216216216216218" rx="5.675675675675675" fill="#7c3aed"/><rect x="437.83783783783787" y="551.3513513513514" width="16.216216216216218" height="16.216216216216218" rx="5.675675675675675" fill="#7c3aed"/><rect x="454.05405405405406" y="551.3513513513514" width="16.216216216216218" height="16.216216216216218" rx="5.675675675675675" fill="#7c3aed"/><rect x="518.918918918919" y="551.3513513513514" width="16.216216216216218" height="16.216216216216218" rx="5.675675675675675" fill="#7c3aed"/><rect x="551.3513513513514" y="551.3513513513514" width="16.216216216216218" height="16.216216216216218" rx="5.675675675675675" fill="#7c3aed"/><rect x="567.5675675675676" y="551.3513513513514" width="16.216216216216218" height="16.216216216216218" rx="5.675675675675675" fill="#7c3aed"/><rect x="583.7837837837839" y="551.3513513513514" width="16.216216216216218" height="16.216216216216218" rx="5.675675675675675" fill="#7c3aed"/><rect x="178.3783783783784" y="567.5675675675676" width="16.216216216216218" height="16.216216216216218" rx="5.675675675675675" fill="#7c3aed"/><rect x="194.5945945945946" y="567.5675675675676" width="16.216216216216218" height="16.216216216216218" rx="5.675675675675675" fill="#7c3aed"/><rect x="227.02702702702703" y="567.5675675675676" width="16.216216216216218" height="16.216216216216218" rx="5.675675675675675" fill="#7c3aed"/><rect x="275.6756756756757" y="567.5675675675676" width="16.216216216216218" height="16.216216216216218" rx="5.675675675675675" fill="#7c3aed"/><rect x="340.5405405405406" y="567.5675675675676" width="16.216216216216218" height="16.216216216216218" rx="5.675675675675675" fill="#7c3aed"/><rect x="421.62162162162167" y="567.5675675675676" width="16.216216216216218" height="16.216216216216218" rx="5.675675675675675" fill="#7c3aed"/><rect x="454.05405405405406" y="567.5675675675676" width="16.216216216216218" height="16.216216216216218" rx="5.675675675675675" fill="#7c3aed"/><rect x="502.70270270270277" y="567.5675675675676" width="16.216216216216218" height="16.216216216216218" rx="5.675675675675675" fill="#7c3aed"/><rect x="535.1351351351352" y="567.5675675675676" width="16.216216216216218" height="16.216216216216218" rx="5.675675675675675" fill="#7c3aed"/><rect x="145.94594594594597" y="583.7837837837839" width="16.216216216216218" height="16.216216216216218" rx="5.675675675675675" fill="#7c3aed"/><rect x="227.02702702702703" y="583.7837837837839" width="16.216216216216218" height="16.216216216216218" rx="5.675675675675675" fill="#7c3aed"/><rect x="275.6756756756757" y="583.7837837837839" width="16.216216216216218" height="16.216216216216218" rx="5.675675675675675" fill="#7c3aed"/><rect x="308.1081081081081" y="583.7837837837839" width="16.216216216216218" height="16.216216216216218" rx="5.675675675675675" fill="#7c3aed"/><rect x="340.5405405405406" y="583.7837837837839" width="16.216216216216218" height="16.216216216216218" rx="5.675675675675675" fill="#7c3aed"/><rect x="372.972972972973" y="583.7837837837839" width="16.216216216216218" height="16.216216216216218" rx="5.675675675675675" fill="#7c3aed"/><rect x="454.05405405405406" y="583.7837837837839" width="16.216216216216218" height="16.216216216216218" rx="5.675675675675675" fill="#7c3aed"/><rect x="535.1351351351352" y="583.7837837837839" width="16.216216216216218" height="16.216216216216218" rx="5.675675675675675" fill="#7c3aed"/><rect x="583.7837837837839" y="583.7837837837839" width="16.216216216216218" height="16.216216216216218" rx="5.675675675675675" fill="#7c3aed"/></g><circle cx="48.64864864864865" cy="48.64864864864865" r="56.75675675675676" fill="#4c1d95"/><circle cx="48.64864864864865" cy="48.64864864864865" r="40.54054054054055" fill="#ffffff"/><circle cx="48.64864864864865" cy="48.64864864864865" r="24.324324324324326" fill="#4c1d95"/><circle cx="535.1351351351352" cy="48.64864864864865" r="56.75675675675676" fill="#4c1d95"/><circle cx="535.1351351351352" cy="48.64864864864865" r="40.54054054054055" fill="#ffffff"/><circle cx="535.1351351351352" cy="48.64864864864865" r="24.324324324324326" fill="#4c1d95"/><circle cx="48.64864864864865" cy="535.1351351351352" r="56.75675675675676" fill="#4c1d95"/><circle cx="48.64864864864865" cy="535.1351351351352" r="40.54054054054055" fill="#ffffff"/><circle cx="48.64864864864865" cy="535.1351351351352" r="24.324324324324326" fill="#4c1d95"/></svg>