<?xml version="1.0" encoding="UTF-8"?><svg xmlns="http://www.w3.org/2000/svg" width="800" height="800" viewBox="0 0 800 800"><rect width="800" height="800" fill="#FFFFFF"/><g fill="#000000"><rect x="0" y="0" width="27.586206896551722" height="27.586206896551722" rx="13.793103448275861" fill="#0969DA"/><rect x="27.586206896551722" y="0" width="27.586206896551722" height="27.586206896551722" rx="13.793103448275861" fill="#0969DA"/><rect x="55.172413793103445" y="0" width="27.586206896551722" height="27.586206896551722" rx="13.793103448275861" fill="#0969DA"/><rect x="82.75862068965517" y="0" width="27.586206896551722" height="27.586206896551722" rx="13.793103448275861" fill="#0969DA"/><rect x="110.34482758620689" y="0" width="27.586206896551722" height="27.586206896551722" rx="13.793103448275861" fill="#0969DA"/><rect x="137.9310344827586" y="0" width="27.586206896551722" height="27.586206896551722" rx="13.793103448275861" fill="#0969DA"/><rect x="165.51724137931035" y="0" width="27.586206896551722" height="27.586206896551722" rx="13.793103448275861" fill="#0969DA"/><rect x="331.0344827586207" y="0" width="27.586206896551722" height="27.586206896551722" rx="11.03448275862069" fill="#000000"/><rect x="386.2068965517241" y="0" width="27.586206896551722" height="27.586206896551722" rx="11.03448275862069" fill="#000000"/><rect x="413.7931034482758" y="0" width="27.586206896551722" height="27.586206896551722" rx="11.03448275862069" fill="#000000"/><rect x="496.551724137931" y="0" width="27.586206896551722" height="27.586206896551722" rx="11.03448275862069" fill="#000000"/><rect x="524.1379310344827" y="0" width="27.586206896551722" height="27.586206896551722" rx="11.03448275862069" fill="#000000"/><rect x="606.8965517241379" y="0" width="27.586206896551722" height="27.586206896551722" rx="13.793103448275861" fill="#0969DA"/><rect x="634.4827586206897" y="0" width="27.586206896551722" height="27.586206896551722" rx="13.793103448275861" fill="#0969DA"/><rect x="662.0689655172414" y="0" width="27.586206896551722" height="27.586206896551722" rx="13.793103448275861" fill="#0969DA"/><rect x="689.655172413793" y="0" width="27.586206896551722" height="27.586206896551722" rx="13.793103448275861" fill="#0969DA"/><rect x="717.2413793103448" y="0" width="27.586206896551722" height="27.586206896551722" rx="13.793103448275861" fill="#0969DA"/><rect x="744.8275862068965" y="0" width="27.586206896551722" height="27.586206896551722" rx="13.793103448275861" fill="#0969DA"/><rect x="772.4137931034483" y="0" width="27.586206896551722" height="27.586206896551722" rx="13.793103448275861" fill="#0969DA"/><rect x="0" y="27.586206896551722" width="27.586206896551722" height="27.586206896551722" rx="13.793103448275861" fill="#0969DA"/><rect x="165.51724137931035" y="27.586206896551722" width="27.586206896551722" height="27.586206896551722" rx="13.793103448275861" fill="#0969DA"/><rect x="220.68965517241378" y="27.586206896551722" width="27.586206896551722" height="27.586206896551722" rx="11.03448275862069" fill="#000000"/><rect x="248.2758620689655" y="27.586206896551722" width="27.586206896551722" height="27.586206896551722" rx="11.03448275862069" fill="#000000"/><rect x="303.44827586206895" y="27.586206896551722" width="27.586206896551722" height="27.586206896551722" rx="11.03448275862069" fill="#000000"/><rect x="358.6206896551724" y="27.586206896551722" width="27.586206896551722" height="27.586206896551722" rx="11.03448275862069" fill="#000000"/><rect x="413.7931034482758" y="27.586206896551722" width="27.586206896551722" height="27.586206896551722" rx="11.03448275862069" fill="#000000"/><rect x="551.7241379310344" y="27.586206896551722" width="27.586206896551722" height="27.586206896551722" rx="11.03448275862069" fill="#000000"/><rect x="606.8965517241379" y="27.586206896551722" width="27.586206896551722" height="27.586206896551722" rx="13.793103448275861" fill="#0969DA"/><rect x="772.4137931034483" y="27.586206896551722" width="27.586206896551722" height="27.586206896551722" rx="13.793103448275861" fill="#0969DA"/><rect x="0" y="55.172413793103445" width="27.586206896551722" height="27.586206896551722" rx="13.793103448275861" fill="#0969DA"/><rect x="55.172413793103445" y="55.172413793103445" width="27.586206896551722" height="27.586206896551722" rx="13.793103448275861" fill="#0969DA"/><rect x="82.75862068965517" y="55.172413793103445" width="27.586206896551722" height="27.586206896551722" rx="13.793103448275861" fill="#0969DA"/><rect x="110.34482758620689" y="55.172413793103445" width="27.586206896551722" height="27.586206896551722" rx="13.793103448275861" fill="#0969DA"/><rect x="165.51724137931035" y="55.172413793103445" width="27.586206896551722" height="27.586206896551722" rx="13.793103448275861" fill="#0969DA"/><rect x="275.8620689655172" y="55.172413793103445" width="27.586206896551722" height="27.586206896551722" rx="11.03448275862069" fill="#000000"/><rect x="303.44827586206895" y="55.172413793103445" width="27.586206896551722" height="27.586206896551722" rx="11.03448275862069" fill="#000000"/><rect x="386.2068965517241" y="55.172413793103445" width="27.586206896551722" height="27.586206896551722" rx="11.03448275862069" fill="#000000"/><rect x="468.9655172413793" y="55.172413793103445" width="27.586206896551722" height="27.586206896551722" rx="11.03448275862069" fill="#000000"/><rect x="524.1379310344827" y="55.172413793103445" width="27.586206896551722" height="27.586206896551722" rx="11.03448275862069" fill="#000000"/><rect x="551.7241379310344" y="55.172413793103445" width="27.586206896551722" height="27.586206896551722" rx="11.03448275862069" fill="#000000"/><rect x="606.8965517241379" y="55.172413793103445" width="27.586206896551722" height="27.586206896551722" rx="13.793103448275861" fill="#0969DA"/><rect x="662.0689655172414" y="55.172413793103445" width="27.586206896551722" height="27.586206896551722" rx="13.793103448275861" fill="#0969DA"/><rect x="689.655172413793" y="55.172413793103445" width="27.586206896551722" height="27.586206896551722" rx="13.793103448275861" fill="#0969DA"/><rect x="717.2413793103448" y="55.172413793103445" width="27.586206896551722" height="27.586206896551722" rx="13.793103448275861" fill="#0969DA"/><rect x="772.4137931034483" y="55.172413793103445" width="27.586206896551722" height="27.586206896551722" rx="13.793103448275861" fill="#0969DA"/><rect x="0" y="82.75862068965517" width="27.586206896551722" height="27.586206896551722" rx="13.793103448275861" fill="#0969DA"/><rect x="55.172413793103445" y="82.75862068965517" width="27.586206896551722" height="27.586206896551722" rx="13.793103448275861" fill="#0969DA"/><rect x="82.75862068965517" y="82.75862068965517" width="27.586206896551722" height="27.586206896551722" rx="13.793103448275861" fill="#0969DA"/><rect x="110.34482758620689" y="82.75862068965517" width="27.586206896551722" height="27.586206896551722" rx="13.793103448275861" fill="#0969DA"/><rect x="165.51724137931035" y="82.75862068965517" width="27.586206896551722" height="27.586206896551722" rx="13.793103448275861" fill="#0969DA"/><rect x="303.44827586206895" y="82.75862068965517" width="27.586206896551722" height="27.586206896551722" rx="11.03448275862069" fill="#000000"/><rect x="386.2068965517241" y="82.75862068965517" width="27.586206896551722" height="27.586206896551722" rx="11.03448275862069" fill="#000000"/><rect x="496.551724137931" y="82.75862068965517" width="27.586206896551722" height="27.586206896551722" rx="11.03448275862069" fill="#000000"/><rect x="524.1379310344827" y="82.75862068965517" width="27.586206896551722" height="27.586206896551722" rx="11.03448275862069" fill="#000000"/><rect x="551.7241379310344" y="82.75862068965517" width="27.586206896551722" height="27.586206896551722" rx="11.03448275862069" fill="#000000"/><rect x="606.8965517241379" y="82.75862068965517" width="27.586206896551722" height="27.586206896551722" rx="13.793103448275861" fill="#0969DA"/><rect x="662.0689655172414" y="82.75862068965517" width="27.586206896551722" height="27.586206896551722" rx="13.793103448275861" fill="#0969DA"/><rect x="689.655172413793" y="82.75862068965517" width="27.586206896551722" height="27.586206896551722" rx="13.793103448275861" fill="#0969DA"/><rect x="717.2413793103448" y="82.75862068965517" width="27.586206896551722" height="27.586206896551722" rx="13.793103448275861" fill="#0969DA"/><rect x="772.4137931034483" y="82.75862068965517" width="27.586206896551722" height="27.586206896551722" rx="13.793103448275861" fill="#0969DA"/><rect x="0" y="110.34482758620689" width="27.586206896551722" height="27.586206896551722" rx="13.793103448275861" fill="#0969DA"/><rect x="55.172413793103445" y="110.34482758620689" width="27.586206896551722" height="27.586206896551722" rx="13.793103448275861" fill="#0969DA"/><rect x="82.75862068965517" y="110.34482758620689" width="27.586206896551722" height="27.586206896551722" rx="13.793103448275861" fill="#0969DA"/><rect x="110.34482758620689" y="110.34482758620689" width="27.586206896551722" height="27.586206896551722" rx="13.793103448275861" fill="#0969DA"/><rect x="165.51724137931035" y="110.34482758620689" width="27.586206896551722" height="27.586206896551722" rx="13.793103448275861" fill="#0969DA"/><rect x="248.2758620689655" y="110.34482758620689" width="27.586206896551722" height="27.586206896551722" rx="11.03448275862069" fill="#000000"/><rect x="331.0344827586207" y="110.34482758620689" width="27.586206896551722" height="27.586206896551722" rx="11.03448275862069" fill="#000000"/><rect x="413.7931034482758" y="110.34482758620689" width="27.586206896551722" height="27.586206896551722" rx="11.03448275862069" fill="#000000"/><rect x="441.37931034482756" y="110.34482758620689" width="27.586206896551722" height="27.586206896551722" rx="11.03448275862069" fill="#000000"/><rect x="496.551724137931" y="110.34482758620689" width="27.586206896551722" height="27.586206896551722" rx="11.03448275862069" fill="#000000"/><rect x="606.8965517241379" y="110.34482758620689" width="27.586206896551722" height="27.586206896551722" rx="13.793103448275861" fill="#0969DA"/><rect x="662.0689655172414" y="110.34482758620689" width="27.586206896551722" height="27.586206896551722" rx="13.793103448275861" fill="#0969DA"/><rect x="689.655172413793" y="110.34482758620689" width="27.586206896551722" height="27.586206896551722" rx="13.793103448275861" fill="#0969DA"/><rect x="717.2413793103448" y="110.34482758620689" width="27.586206896551722" height="27.586206896551722" rx="13.793103448275861" fill="#0969DA"/><rect x="772.4137931034483" y="110.34482758620689" width="27.586206896551722" height="27.586206896551722" rx="13.793103448275861" fill="#0969DA"/><rect x="0" y="137.9310344827586" width="27.586206896551722" height="27.586206896551722" rx="13.793103448275861" fill="#0969DA"/><rect x="165.51724137931035" y="137.9310344827586" width="27.586206896551722" height="27.586206896551722" rx="13.793103448275861" fill="#0969DA"/><rect x="220.68965517241378" y="137.9310344827586" width="27.586206896551722" height="27.586206896551722" rx="11.03448275862069" fill="#000000"/><rect x="275.8620689655172" y="137.9310344827586" width="27.586206896551722" height="27.586206896551722" rx="11.03448275862069" fill="#000000"/><rect x="386.2068965517241" y="137.9310344827586" width="27.586206896551722" height="27.586206896551722" rx="11.03448275862069" fill="#000000"/><rect x="441.37931034482756" y="137.9310344827586" width="27.586206896551722" height="27.586206896551722" rx="11.03448275862069" fill="#000000"/><rect x="496.551724137931" y="137.9310344827586" width="27.586206896551722" height="27.586206896551722" rx="11.03448275862069" fill="#000000"/><rect x="524.1379310344827" y="137.9310344827586" width="27.586206896551722" height="27.586206896551722" rx="11.03448275862069" fill="#000000"/><rect x="606.8965517241379" y="137.9310344827586" width="27.586206896551722" height="27.586206896551722" rx="13.793103448275861" fill="#0969DA"/><rect x="772.4137931034483" y="137.9310344827586" width="27.586206896551722" height="27.586206896551722" rx="13.793103448275861" fill="#0969DA"/><rect x="0" y="165.51724137931035" width="27.586206896551722" height="27.586206896551722" rx="13.793103448275861" fill="#0969DA"/><rect x="27.586206896551722" y="165.51724137931035" width="27.586206896551722" height="27.586206896551722" rx="13.793103448275861" fill="#0969DA"/><rect x="55.172413793103445" y="165.51724137931035" width="27.586206896551722" height="27.586206896551722" rx="13.793103448275861" fill="#0969DA"/><rect x="82.75862068965517" y="165.51724137931035" width="27.586206896551722" height="27.586206896551722" rx="13.793103448275861" fill="#0969DA"/><rect x="110.34482758620689" y="165.51724137931035" width="27.586206896551722" height="27.586206896551722" rx="13.793103448275861" fill="#0969DA"/><rect x="137.9310344827586" y="165.51724137931035" width="27.586206896551722" height="27.586206896551722" rx="13.793103448275861" fill="#0969DA"/><rect x="165.51724137931035" y="165.51724137931035" width="27.586206896551722" height="27.586206896551722" rx="13.793103448275861" fill="#0969DA"/><rect x="220.68965517241378" y="165.51724137931035" width="27.586206896551722" height="27.586206896551722" rx="11.03448275862069" fill="#000000"/><rect x="275.8620689655172" y="165.51724137931035" width="27.586206896551722" height="27.586206896551722" rx="11.03448275862069" fill="#000000"/><rect x="331.0344827586207" y="165.51724137931035" width="27.586206896551722" height="27.586206896551722" rx="11.03448275862069" fill="#000000"/><rect x="386.2068965517241" y="165.51724137931035" width="27.586206896551722" height="27.586206896551722" rx="11.03448275862069" fill="#000000"/><rect x="441.37931034482756" y="165.51724137931035" width="27.586206896551722" height="27.586206896551722" rx="11.03448275862069" fill="#000000"/><rect x="496.551724137931" y="165.51724137931035" width="27.586206896551722" height="27.586206896551722" rx="11.03448275862069" fill="#000000"/><rect x="551.7241379310344" y="165.51724137931035" width="27.586206896551722" height="27.586206896551722" rx="11.03448275862069" fill="#000000"/><rect x="606.8965517241379" y="165.51724137931035" width="27.586206896551722" height="27.586206896551722" rx="13.793103448275861" fill="#0969DA"/><rect x="634.4827586206897" y="165.51724137931035" width="27.586206896551722" height="27.586206896551722" rx="13.793103448275861" fill="#0969DA"/><rect x="662.0689655172414" y="165.51724137931035" width="27.586206896551722" height="27.586206896551722" rx="13.793103448275861" fill="#0969DA"/><rect x="689.655172413793" y="165.51724137931035" width="27.586206896551722" height="27.586206896551722" rx="13.793103448275861" fill="#0969DA"/><rect x="717.2413793103448" y="165.51724137931035" width="27.586206896551722" height="27.586206896551722" rx="13.793103448275861" fill="#0969DA"/><rect x="744.8275862068965" y="165.51724137931035" width="27.586206896551722" height="27.586206896551722" rx="13.793103448275861" fill="#0969DA"/><rect x="772.4137931034483" y="165.51724137931035" width="27.586206896551722" height="27.586206896551722" rx="13.793103448275861" fill="#0969DA"/><rect x="220.68965517241378" y="193.10344827586206" width="27.586206896551722" height="27.586206896551722" rx="11.03448275862069" fill="#000000"/><rect x="248.2758620689655" y="193.10344827586206" width="27.586206896551722" height="27.586206896551722" rx="11.03448275862069" fill="#000000"/><rect x="275.8620689655172" y="193.10344827586206" width="27.586206896551722" height="27.586206896551722" rx="11.03448275862069" fill="#000000"/><rect x="331.0344827586207" y="193.10344827586206" width="27.586206896551722" height="27.586206896551722" rx="11.03448275862069" fill="#000000"/><rect x="358.6206896551724" y="193.10344827586206" width="27.586206896551722" height="27.586206896551722" rx="11.03448275862069" fill="#000000"/><rect x="441.37931034482756" y="193.10344827586206" width="27.586206896551722" height="27.586206896551722" rx="11.03448275862069" fill="#000000"/><rect x="468.9655172413793" y="193.10344827586206" width="27.586206896551722" height="27.586206896551722" rx="11.03448275862069" fill="#000000"/><rect x="496.551724137931" y="193.10344827586206" width="27.586206896551722" height="27.586206896551722" rx="11.03448275862069" fill="#000000"/><rect x="110.34482758620689" y="220.68965517241378" width="27.586206896551722" height="27.586206896551722" rx="11.03448275862069" fill="#000000"/><rect x="137.9310344827586" y="220.68965517241378" width="27.586206896551722" height="27.586206896551722" rx="11.03448275862069" fill="#000000"/><rect x="165.51724137931035" y="220.68965517241378" width="27.586206896551722" height="27.586206896551722" rx="11.03448275862069" fill="#000000"/><rect x="193.10344827586206" y="220.68965517241378" width="27.586206896551722" height="27.586206896551722" rx="11.03448275862069" fill="#000000"/><rect x="275.8620689655172" y="220.68965517241378" width="27.586206896551722" height="27.586206896551722" rx="11.03448275862069" fill="#000000"/><rect x="303.44827586206895" y="220.68965517241378" width="27.586206896551722" height="27.586206896551722" rx="11.03448275862069" fill="#000000"/><rect x="331.0344827586207" y="220.68965517241378" width="27.586206896551722" height="27.586206896551722" rx="11.03448275862069" fill="#000000"/><rect x="358.6206896551724" y="220.68965517241378" width="27.586206896551722" height="27.586206896551722" rx="11.03448275862069" fill="#000000"/><rect x="386.2068965517241" y="220.68965517241378" width="27.586206896551722" height="27.586206896551722" rx="11.03448275862069" fill="#000000"/><rect x="496.551724137931" y="220.68965517241378" width="27.586206896551722" height="27.586206896551722" rx="11.03448275862069" fill="#000000"/><rect x="606.8965517241379" y="220.68965517241378" width="27.586206896551722" height="27.586206896551722" rx="11.03448275862069" fill="#000000"/><rect x="634.4827586206897" y="220.68965517241378" width="27.586206896551722" height="27.586206896551722" rx="11.03448275862069" fill="#000000"/><rect x="744.8275862068965" y="220.68965517241378" width="27.586206896551722" height="27.586206896551722" rx="11.03448275862069" fill="#000000"/><rect x="0" y="248.2758620689655" width="27.586206896551722" height="27.586206896551722" rx="11.03448275862069" fill="#000000"/><rect x="55.172413793103445" y="248.2758620689655" width="27.586206896551722" height="27.586206896551722" rx="11.03448275862069" fill="#000000"/><rect x="110.34482758620689" y="248.2758620689655" width="27.586206896551722" height="27.586206896551722" rx="11.03448275862069" fill="#000000"/><rect x="248.2758620689655" y="248.2758620689655" width="27.586206896551722" height="27.586206896551722" rx="11.03448275862069" fill="#000000"/><rect x="386.2068965517241" y="248.2758620689655" width="27.586206896551722" height="27.586206896551722" rx="11.03448275862069" fill="#000000"/><rect x="413.7931034482758" y="248.2758620689655" width="27.586206896551722" height="27.586206896551722" rx="11.03448275862069" fill="#000000"/><rect x="524.1379310344827" y="248.2758620689655" width="27.586206896551722" height="27.586206896551722" rx="11.03448275862069" fill="#000000"/><rect x="551.7241379310344" y="248.2758620689655" width="27.586206896551722" height="27.586206896551722" rx="11.03448275862069" fill="#000000"/><rect x="662.0689655172414" y="248.2758620689655" width="27.586206896551722" height="27.586206896551722" rx="11.03448275862069" fill="#000000"/><rect x="689.655172413793" y="248.2758620689655" width="27.586206896551722" height="27.586206896551722" rx="11.03448275862069" fill="#000000"/><rect x="717.2413793103448" y="248.2758620689655" width="27.586206896551722" height="27.586206896551722" rx="11.03448275862069" fill="#000000"/><rect x="744.8275862068965" y="248.2758620689655" width="27.586206896551722" height="27.586206896551722" rx="11.03448275862069" fill="#000000"/><rect x="772.4137931034483" y="248.2758620689655" width="27.586206896551722" height="27.586206896551722" rx="11.03448275862069" fill="#000000"/><rect x="0" y="275.8620689655172" width="27.586206896551722" height="27.586206896551722" rx="11.03448275862069" fill="#000000"/><rect x="82.75862068965517" y="275.8620689655172" width="27.586206896551722" height="27.586206896551722" rx="11.03448275862069" fill="#000000"/><rect x="165.51724137931035" y="275.8620689655172" width="27.586206896551722" height="27.586206896551722" rx="11.03448275862069" fill="#000000"/><rect x="220.68965517241378" y="275.8620689655172" width="27.586206896551722" height="27.586206896551722" rx="11.03448275862069" fill="#000000"/><rect x="248.2758620689655" y="275.8620689655172" width="27.586206896551722" height="27.586206896551722" rx="11.03448275862069" fill="#000000"/><rect x="275.8620689655172" y="275.8620689655172" width="27.586206896551722" height="27.586206896551722" rx="11.03448275862069" fill="#000000"/><rect x="331.0344827586207" y="275.8620689655172" width="27.586206896551722" height="27.586206896551722" rx="11.03448275862069" fill="#000000"/><rect x="358.6206896551724" y="275.8620689655172" width="27.586206896551722" height="27.586206896551722" rx="11.03448275862069" fill="#000000"/><rect x="386.2068965517241" y="275.8620689655172" width="27.586206896551722" height="27.586206896551722" rx="11.03448275862069" fill="#000000"/><rect x="413.7931034482758" y="275.8620689655172" width="27.586206896551722" height="27.586206896551722" rx="11.03448275862069" fill="#000000"/><rect x="551.7241379310344" y="275.8620689655172" width="27.586206896551722" height="27.586206896551722" rx="11.03448275862069" fill="#000000"/><rect x="579.3103448275862" y="275.8620689655172" width="27.586206896551722" height="27.586206896551722" rx="11.03448275862069" fill="#000000"/><rect x="717.2413793103448" y="275.8620689655172" width="27.586206896551722" height="27.586206896551722" rx="11.03448275862069" fill="#000000"/><rect x="772.4137931034483" y="275.8620689655172" width="27.586206896551722" height="27.586206896551722" rx="11.03448275862069" fill="#000000"/><rect x="0" y="303.44827586206895" width="27.586206896551722" height="27.586206896551722" rx="11.03448275862069" fill="#000000"/><rect x="82.75862068965517" y="303.44827586206895" width="27.586206896551722" height="27.586206896551722" rx="11.03448275862069" fill="#000000"/><rect x="110.34482758620689" y="303.44827586206895" width="27.586206896551722" height="27.586206896551722" rx="11.03448275862069" fill="#000000"/><rect x="275.8620689655172" y="303.44827586206895" width="27.586206896551722" height="27.586206896551722" rx="11.03448275862069" fill="#000000"/><rect x="303.44827586206895" y="303.44827586206895" width="27.586206896551722" height="27.586206896551722" rx="11.03448275862069" fill="#000000"/><rect x="386.2068965517241" y="303.44827586206895" width="27.586206896551722" height="27.586206896551722" rx="11.03448275862069" fill="#000000"/><rect x="441.37931034482756" y="303.44827586206895" width="27.586206896551722" height="27.586206896551722" rx="11.03448275862069" fill="#000000"/><rect x="579.3103448275862" y="303.44827586206895" width="27.586206896551722" height="27.586206896551722" rx="11.03448275862069" fill="#000000"/><rect x="662.0689655172414" y="303.44827586206895" width="27.586206896551722" height="27.586206896551722" rx="11.03448275862069" fill="#000000"/><rect x="744.8275862068965" y="303.44827586206895" width="27.586206896551722" height="27.586206896551722" rx="11.03448275862069" fill="#000000"/><rect x="772.4137931034483" y="303.44827586206895" width="27.586206896551722" height="27.586206896551722" rx="11.03448275862069" fill="#000000"/><rect x="0" y="331.0344827586207" width="27.586206896551722" height="27.586206896551722" rx="11.03448275862069" fill="#000000"/><rect x="27.586206896551722" y="331.0344827586207" width="27.586206896551722" height="27.586206896551722" rx="11.03448275862069" fill="#000000"/><rect x="55.172413793103445" y="331.0344827586207" width="27.586206896551722" height="27.586206896551722" rx="11.03448275862069" fill="#000000"/><rect x="137.9310344827586" y="331.0344827586207" width="27.586206896551722" height="27.586206896551722" rx="11.03448275862069" fill="#000000"/><rect x="165.51724137931035" y="331.0344827586207" width="27.586206896551722" height="27.586206896551722" rx="11.03448275862069" fill="#000000"/><rect x="193.10344827586206" y="331.0344827586207" width="27.586206896551722" height="27.586206896551722" rx="11.03448275862069" fill="#000000"/><rect x="275.8620689655172" y="331.0344827586207" width="27.586206896551722" height="27.586206896551722" rx="11.03448275862069" fill="#000000"/><rect x="331.0344827586207" y="331.0344827586207" width="27.586206896551722" height="27.586206896551722" rx="11.03448275862069" fill="#000000"/><rect x="358.6206896551724" y="331.0344827586207" width="27.586206896551722" height="27.586206896551722" rx="11.03448275862069" fill="#000000"/><rect x="413.7931034482758" y="331.0344827586207" width="27.586206896551722" height="27.586206896551722" rx="11.03448275862069" fill="#000000"/><rect x="441.37931034482756" y="331.0344827586207" width="27.586206896551722" height="27.586206896551722" rx="11.03448275862069" fill="#000000"/><rect x="468.9655172413793" y="331.0344827586207" width="27.586206896551722" height="27.586206896551722" rx="11.03448275862069" fill="#000000"/><rect x="496.551724137931" y="331.0344827586207" width="27.586206896551722" height="27.586206896551722" rx="11.03448275862069" fill="#000000"/><rect x="524.1379310344827" y="331.0344827586207" width="27.586206896551722" height="27.586206896551722" rx="11.03448275862069" fill="#000000"/><rect x="551.7241379310344" y="331.0344827586207" width="27.586206896551722" height="27.586206896551722" rx="11.03448275862069" fill="#000000"/><rect x="634.4827586206897" y="331.0344827586207" width="27.586206896551722" height="27.586206896551722" rx="11.03448275862069" fill="#000000"/><rect x="689.655172413793" y="331.0344827586207" width="27.586206896551722" height="27.586206896551722" rx="11.03448275862069" fill="#000000"/><rect x="772.4137931034483" y="331.0344827586207" width="27.586206896551722" height="27.586206896551722" rx="11.03448275862069" fill="#000000"/><rect x="0" y="358.6206896551724" width="27.586206896551722" height="27.586206896551722" rx="11.03448275862069" fill="#000000"/><rect x="82.75862068965517" y="358.6206896551724" width="27.586206896551722" height="27.586206896551722" rx="11.03448275862069" fill="#000000"/><rect x="110.34482758620689" y="358.6206896551724" width="27.586206896551722" height="27.586206896551722" rx="11.03448275862069" fill="#000000"/><rect x="137.9310344827586" y="358.6206896551724" width="27.586206896551722" height="27.586206896551722" rx="11.03448275862069" fill="#000000"/><rect x="220.68965517241378" y="358.6206896551724" width="27.586206896551722" height="27.586206896551722" rx="11.03448275862069" fill="#000000"/><rect x="248.2758620689655" y="358.6206896551724" width="27.586206896551722" height="27.586206896551722" rx="11.03448275862069" fill="#000000"/><rect x="275.8620689655172" y="358.6206896551724" width="27.586206896551722" height="27.586206896551722" rx="11.03448275862069" fill="#000000"/><rect x="303.44827586206895" y="358.6206896551724" width="27.586206896551722" height="27.586206896551722" rx="11.03448275862069" fill="#000000"/><rect x="331.0344827586207" y="358.6206896551724" width="27.586206896551722" height="27.586206896551722" rx="11.03448275862069" fill="#000000"/><rect x="441.37931034482756" y="358.6206896551724" width="27.586206896551722" height="27.586206896551722" rx="11.03448275862069" fill="#000000"/><rect x="468.9655172413793" y="358.6206896551724" width="27.586206896551722" height="27.586206896551722" rx="11.03448275862069" fill="#000000"/><rect x="606.8965517241379" y="358.6206896551724" width="27.586206896551722" height="27.586206896551722" rx="11.03448275862069" fill="#000000"/><rect x="662.0689655172414" y="358.6206896551724" width="27.586206896551722" height="27.586206896551722" rx="11.03448275862069" fill="#000000"/><rect x="717.2413793103448" y="358.6206896551724" width="27.586206896551722" height="27.586206896551722" rx="11.03448275862069" fill="#000000"/><rect x="772.4137931034483" y="358.6206896551724" width="27.586206896551722" height="27.586206896551722" rx="11.03448275862069" fill="#000000"/><rect x="0" y="386.2068965517241" width="27.586206896551722" height="27.586206896551722" rx="11.03448275862069" fill="#000000"/><rect x="27.586206896551722" y="386.2068965517241" width="27.586206896551722" height="27.586206896551722" rx="11.03448275862069" fill="#000000"/><rect x="55.172413793103445" y="386.2068965517241" width="27.586206896551722" height="27.586206896551722" rx="11.03448275862069" fill="#000000"/><rect x="82.75862068965517" y="386.2068965517241" width="27.586206896551722" height="27.586206896551722" rx="11.03448275862069" fill="#000000"/><rect x="165.51724137931035" y="386.2068965517241" width="27.586206896551722" height="27.586206896551722" rx="11.03448275862069" fill="#000000"/><rect x="193.10344827586206" y="386.2068965517241" width="27.586206896551722" height="27.586206896551722" rx="11.03448275862069" fill="#000000"/><rect x="248.2758620689655" y="386.2068965517241" width="27.586206896551722" height="27.586206896551722" rx="11.03448275862069" fill="#000000"/><rect x="275.8620689655172" y="386.2068965517241" width="27.586206896551722" height="27.586206896551722" rx="11.03448275862069" fill="#000000"/><rect x="331.0344827586207" y="386.2068965517241" width="27.586206896551722" height="27.586206896551722" rx="11.03448275862069" fill="#000000"/><rect x="413.7931034482758" y="386.2068965517241" width="27.586206896551722" height="27.586206896551722" rx="11.03448275862069" fill="#000000"/><rect x="468.9655172413793" y="386.2068965517241" width="27.586206896551722" height="27.586206896551722" rx="11.03448275862069" fill="#000000"/><rect x="496.551724137931" y="386.2068965517241" width="27.586206896551722" height="27.586206896551722" rx="11.03448275862069" fill="#000000"/><rect x="551.7241379310344" y="386.2068965517241" width="27.586206896551722" height="27.586206896551722" rx="11.03448275862069" fill="#000000"/><rect x="662.0689655172414" y="386.2068965517241" width="27.586206896551722" height="27.586206896551722" rx="11.03448275862069" fill="#000000"/><rect x="772.4137931034483" y="386.2068965517241" width="27.586206896551722" height="27.586206896551722" rx="11.03448275862069" fill="#000000"/><rect x="0" y="413.7931034482758" width="27.586206896551722" height="27.586206896551722" rx="11.03448275862069" fill="#000000"/><rect x="55.172413793103445" y="413.7931034482758" width="27.586206896551722" height="27.586206896551722" rx="11.03448275862069" fill="#000000"/><rect x="220.68965517241378" y="413.7931034482758" width="27.586206896551722" height="27.586206896551722" rx="11.03448275862069" fill="#000000"/><rect x="413.7931034482758" y="413.7931034482758" width="27.586206896551722" height="27.586206896551722" rx="11.03448275862069" fill="#000000"/><rect x="496.551724137931" y="413.7931034482758" width="27.586206896551722" height="27.586206896551722" rx="11.03448275862069" fill="#000000"/><rect x="524.1379310344827" y="413.7931034482758" width="27.586206896551722" height="27.586206896551722" rx="11.03448275862069" fill="#000000"/><rect x="551.7241379310344" y="413.7931034482758" width="27.586206896551722" height="27.586206896551722" rx="11.03448275862069" fill="#000000"/><rect x="579.3103448275862" y="413.7931034482758" width="27.586206896551722" height="27.586206896551722" rx="11.03448275862069" fill="#000000"/><rect x="634.4827586206897" y="413.7931034482758" width="27.586206896551722" height="27.586206896551722" rx="11.03448275862069" fill="#000000"/><rect x="689.655172413793" y="413.7931034482758" width="27.586206896551722" height="27.586206896551722" rx="11.03448275862069" fill="#000000"/><rect x="772.4137931034483" y="413.7931034482758" width="27.586206896551722" height="27.586206896551722" rx="11.03448275862069" fill="#000000"/><rect x="27.586206896551722" y="441.37931034482756" width="27.586206896551722" height="27.586206896551722" rx="11.03448275862069" fill="#000000"/><rect x="110.34482758620689" y="441.37931034482756" width="27.586206896551722" height="27.586206896551722" rx="11.03448275862069" fill="#000000"/><rect x="137.9310344827586" y="441.37931034482756" width="27.586206896551722" height="27.586206896551722" rx="11.03448275862069" fill="#000000"/><rect x="165.51724137931035" y="441.37931034482756" width="27.586206896551722" height="27.586206896551722" rx="11.03448275862069" fill="#000000"/><rect x="331.0344827586207" y="441.37931034482756" width="27.586206896551722" height="27.586206896551722" rx="11.03448275862069" fill="#000000"/><rect x="386.2068965517241" y="441.37931034482756" width="27.586206896551722" height="27.586206896551722" rx="11.03448275862069" fill="#000000"/><rect x="441.37931034482756" y="441.37931034482756" width="27.586206896551722" height="27.586206896551722" rx="11.03448275862069" fill="#000000"/><rect x="496.551724137931" y="441.37931034482756" width="27.586206896551722" height="27.586206896551722" rx="11.03448275862069" fill="#000000"/><rect x="524.1379310344827" y="441.37931034482756" width="27.586206896551722" height="27.586206896551722" rx="11.03448275862069" fill="#000000"/><rect x="551.7241379310344" y="441.37931034482756" width="27.586206896551722" height="27.586206896551722" rx="11.03448275862069" fill="#000000"/><rect x="579.3103448275862" y="441.37931034482756" width="27.586206896551722" height="27.586206896551722" rx="11.03448275862069" fill="#000000"/><rect x="606.8965517241379" y="441.37931034482756" width="27.586206896551722" height="27.586206896551722" rx="11.03448275862069" fill="#000000"/><rect x="744.8275862068965" y="441.37931034482756" width="27.586206896551722" height="27.586206896551722" rx="11.03448275862069" fill="#000000"/><rect x="0" y="468.9655172413793" width="27.586206896551722" height="27.586206896551722" rx="11.03448275862069" fill="#000000"/><rect x="27.586206896551722" y="468.9655172413793" width="27.586206896551722" height="27.586206896551722" rx="11.03448275862069" fill="#000000"/><rect x="110.34482758620689" y="468.9655172413793" width="27.586206896551722" height="27.586206896551722" rx="11.03448275862069" fill="#000000"/><rect x="137.9310344827586" y="468.9655172413793" width="27.586206896551722" height="27.586206896551722" rx="11.03448275862069" fill="#000000"/><rect x="248.2758620689655" y="468.9655172413793" width="27.586206896551722" height="27.586206896551722" rx="11.03448275862069" fill="#000000"/><rect x="275.8620689655172" y="468.9655172413793" width="27.586206896551722" height="27.586206896551722" rx="11.03448275862069" fill="#000000"/><rect x="413.7931034482758" y="468.9655172413793" width="27.586206896551722" height="27.586206896551722" rx="11.03448275862069" fill="#000000"/><rect x="468.9655172413793" y="468.9655172413793" width="27.586206896551722" height="27.586206896551722" rx="11.03448275862069" fill="#000000"/><rect x="496.551724137931" y="468.9655172413793" width="27.586206896551722" height="27.586206896551722" rx="11.03448275862069" fill="#000000"/><rect x="524.1379310344827" y="468.9655172413793" width="27.586206896551722" height="27.586206896551722" rx="11.03448275862069" fill="#000000"/><rect x="634.4827586206897" y="468.9655172413793" width="27.586206896551722" height="27.586206896551722" rx="11.03448275862069" fill="#000000"/><rect x="662.0689655172414" y="468.9655172413793" width="27.586206896551722" height="27.586206896551722" rx="11.03448275862069" fill="#000000"/><rect x="772.4137931034483" y="468.9655172413793" width="27.586206896551722" height="27.586206896551722" rx="11.03448275862069" fill="#000000"/><rect x="55.172413793103445" y="496.551724137931" width="27.586206896551722" height="27.586206896551722" rx="11.03448275862069" fill="#000000"/><rect x="82.75862068965517" y="496.551724137931" width="27.586206896551722" height="27.586206896551722" rx="11.03448275862069" fill="#000000"/><rect x="165.51724137931035" y="496.551724137931" width="27.586206896551722" height="27.586206896551722" rx="11.03448275862069" fill="#000000"/><rect x="248.2758620689655" y="496.551724137931" width="27.586206896551722" height="27.586206896551722" rx="11.03448275862069" fill="#000000"/><rect x="303.44827586206895" y="496.551724137931" width="27.586206896551722" height="27.586206896551722" rx="11.03448275862069" fill="#000000"/><rect x="331.0344827586207" y="496.551724137931" width="27.586206896551722" height="27.586206896551722" rx="11.03448275862069" fill="#000000"/><rect x="358.6206896551724" y="496.551724137931" width="27.586206896551722" height="27.586206896551722" rx="11.03448275862069" fill="#000000"/><rect x="386.2068965517241" y="496.551724137931" width="27.586206896551722" height="27.586206896551722" rx="11.03448275862069" fill="#000000"/><rect x="496.551724137931" y="496.551724137931" width="27.586206896551722" height="27.586206896551722" rx="11.03448275862069" fill="#000000"/><rect x="524.1379310344827" y="496.551724137931" width="27.586206896551722" height="27.586206896551722" rx="11.03448275862069" fill="#000000"/><rect x="662.0689655172414" y="496.551724137931" width="27.586206896551722" height="27.586206896551722" rx="11.03448275862069" fill="#000000"/><rect x="717.2413793103448" y="496.551724137931" width="27.586206896551722" height="27.586206896551722" rx="11.03448275862069" fill="#000000"/><rect x="772.4137931034483" y="496.551724137931" width="27.586206896551722" height="27.586206896551722" rx="11.03448275862069" fill="#000000"/><rect x="82.75862068965517" y="524.1379310344827" width="27.586206896551722" height="27.586206896551722" rx="11.03448275862069" fill="#000000"/><rect x="137.9310344827586" y="524.1379310344827" width="27.586206896551722" height="27.586206896551722" rx="11.03448275862069" fill="#000000"/><rect x="193.10344827586206" y="524.1379310344827" width="27.586206896551722" height="27.586206896551722" rx="11.03448275862069" fill="#000000"/><rect x="248.2758620689655" y="524.1379310344827" width="27.586206896551722" height="27.586206896551722" rx="11.03448275862069" fill="#000000"/><rect x="303.44827586206895" y="524.1379310344827" width="27.586206896551722" height="27.586206896551722" rx="11.03448275862069" fill="#000000"/><rect x="386.2068965517241" y="524.1379310344827" width="27.586206896551722" height="27.586206896551722" rx="11.03448275862069" fill="#000000"/><rect x="413.7931034482758" y="524.1379310344827" width="27.586206896551722" height="27.586206896551722" rx="11.03448275862069" fill="#000000"/><rect x="496.551724137931" y="524.1379310344827" width="27.586206896551722" height="27.586206896551722" rx="11.03448275862069" fill="#000000"/><rect x="524.1379310344827" y="524.1379310344827" width="27.586206896551722" height="27.586206896551722" rx="11.03448275862069" fill="#000000"/><rect x="551.7241379310344" y="524.1379310344827" width="27.586206896551722" height="27.586206896551722" rx="11.03448275862069" fill="#000000"/><rect x="662.0689655172414" y="524.1379310344827" width="27.586206896551722" height="27.586206896551722" rx="11.03448275862069" fill="#000000"/><rect x="689.655172413793" y="524.1379310344827" width="27.586206896551722" height="27.586206896551722" rx="11.03448275862069" fill="#000000"/><rect x="744.8275862068965" y="524.1379310344827" width="27.586206896551722" height="27.586206896551722" rx="11.03448275862069" fill="#000000"/><rect x="0" y="551.7241379310344" width="27.586206896551722" height="27.586206896551722" rx="11.03448275862069" fill="#000000"/><rect x="27.586206896551722" y="551.7241379310344" width="27.586206896551722" height="27.586206896551722" rx="11.03448275862069" fill="#000000"/><rect x="110.34482758620689" y="551.7241379310344" width="27.586206896551722" height="27.586206896551722" rx="11.03448275862069" fill="#000000"/><rect x="137.9310344827586" y="551.7241379310344" width="27.586206896551722" height="27.586206896551722" rx="11.03448275862069" fill="#000000"/><rect x="165.51724137931035" y="551.7241379310344" width="27.586206896551722" height="27.586206896551722" rx="11.03448275862069" fill="#000000"/><rect x="220.68965517241378" y="551.7241379310344" width="27.586206896551722" height="27.586206896551722" rx="11.03448275862069" fill="#000000"/><rect x="275.8620689655172" y="551.7241379310344" width="27.586206896551722" height="27.586206896551722" rx="11.03448275862069" fill="#000000"/><rect x="358.6206896551724" y="551.7241379310344" width="27.586206896551722" height="27.586206896551722" rx="11.03448275862069" fill="#000000"/><rect x="386.2068965517241" y="551.7241379310344" width="27.586206896551722" height="27.586206896551722" rx="11.03448275862069" fill="#000000"/><rect x="468.9655172413793" y="551.7241379310344" width="27.586206896551722" height="27.586206896551722" rx="11.03448275862069" fill="#000000"/><rect x="551.7241379310344" y="551.7241379310344" width="27.586206896551722" height="27.586206896551722" rx="11.03448275862069" fill="#000000"/><rect x="579.3103448275862" y="551.7241379310344" width="27.586206896551722" height="27.586206896551722" rx="11.03448275862069" fill="#000000"/><rect x="606.8965517241379" y="551.7241379310344" width="27.586206896551722" height="27.586206896551722" rx="11.03448275862069" fill="#000000"/><rect x="634.4827586206897" y="551.7241379310344" width="27.586206896551722" height="27.586206896551722" rx="11.03448275862069" fill="#000000"/><rect x="662.0689655172414" y="551.7241379310344" width="27.586206896551722" height="27.586206896551722" rx="11.03448275862069" fill="#000000"/><rect x="689.655172413793" y="551.7241379310344" width="27.586206896551722" height="27.586206896551722" rx="11.03448275862069" fill="#000000"/><rect x="220.68965517241378" y="579.3103448275862" width="27.586206896551722" height="27.586206896551722" rx="11.03448275862069" fill="#000000"/><rect x="248.2758620689655" y="579.3103448275862" width="27.586206896551722" height="27.586206896551722" rx="11.03448275862069" fill="#000000"/><rect x="303.44827586206895" y="579.3103448275862" width="27.586206896551722" height="27.586206896551722" rx="11.03448275862069" fill="#000000"/><rect x="358.6206896551724" y="579.3103448275862" width="27.586206896551722" height="27.586206896551722" rx="11.03448275862069" fill="#000000"/><rect x="386.2068965517241" y="579.3103448275862" width="27.586206896551722" height="27.586206896551722" rx="11.03448275862069" fill="#000000"/><rect x="413.7931034482758" y="579.3103448275862" width="27.586206896551722" height="27.586206896551722" rx="11.03448275862069" fill="#000000"/><rect x="441.37931034482756" y="579.3103448275862" width="27.586206896551722" height="27.586206896551722" rx="11.03448275862069" fill="#000000"/><rect x="468.9655172413793" y="579.3103448275862" width="27.586206896551722" height="27.586206896551722" rx="11.03448275862069" fill="#000000"/><rect x="496.551724137931" y="579.3103448275862" width="27.586206896551722" height="27.586206896551722" rx="11.03448275862069" fill="#000000"/><rect x="524.1379310344827" y="579.3103448275862" width="27.586206896551722" height="27.586206896551722" rx="11.03448275862069" fill="#000000"/><rect x="551.7241379310344" y="579.3103448275862" width="27.586206896551722" height="27.586206896551722" rx="11.03448275862069" fill="#000000"/><rect x="662.0689655172414" y="579.3103448275862" width="27.586206896551722" height="27.586206896551722" rx="11.03448275862069" fill="#000000"/><rect x="717.2413793103448" y="579.3103448275862" width="27.586206896551722" height="27.586206896551722" rx="11.03448275862069" fill="#000000"/><rect x="744.8275862068965" y="579.3103448275862" width="27.586206896551722" height="27.586206896551722" rx="11.03448275862069" fill="#000000"/><rect x="772.4137931034483" y="579.3103448275862" width="27.586206896551722" height="27.586206896551722" rx="11.03448275862069" fill="#000000"/><rect x="0" y="606.8965517241379" width="27.586206896551722" height="27.586206896551722" rx="13.793103448275861" fill="#0969DA"/><rect x="27.586206896551722" y="606.8965517241379" width="27.586206896551722" height="27.586206896551722" rx="13.793103448275861" fill="#0969DA"/><rect x="55.172413793103445" y="606.8965517241379" width="27.586206896551722" height="27.586206896551722" rx="13.793103448275861" fill="#0969DA"/><rect x="82.75862068965517" y="606.8965517241379" width="27.586206896551722" height="27.586206896551722" rx="13.793103448275861" fill="#0969DA"/><rect x="110.34482758620689" y="606.8965517241379" width="27.586206896551722" height="27.586206896551722" rx="13.793103448275861" fill="#0969DA"/><rect x="137.9310344827586" y="606.8965517241379" width="27.586206896551722" height="27.586206896551722" rx="13.793103448275861" fill="#0969DA"/><rect x="165.51724137931035" y="606.8965517241379" width="27.586206896551722" height="27.586206896551722" rx="13.793103448275861" fill="#0969DA"/><rect x="220.68965517241378" y="606.8965517241379" width="27.586206896551722" height="27.586206896551722" rx="11.03448275862069" fill="#000000"/><rect x="248.2758620689655" y="606.8965517241379" width="27.586206896551722" height="27.586206896551722" rx="11.03448275862069" fill="#000000"/><rect x="275.8620689655172" y="606.8965517241379" width="27.586206896551722" height="27.586206896551722" rx="11.03448275862069" fill="#000000"/><rect x="303.44827586206895" y="606.8965517241379" width="27.586206896551722" height="27.586206896551722" rx="11.03448275862069" fill="#000000"/><rect x="413.7931034482758" y="606.8965517241379" width="27.586206896551722" height="27.586206896551722" rx="11.03448275862069" fill="#000000"/><rect x="524.1379310344827" y="606.8965517241379" width="27.586206896551722" height="27.586206896551722" rx="11.03448275862069" fill="#000000"/><rect x="551.7241379310344" y="606.8965517241379" width="27.586206896551722" height="27.586206896551722" rx="11.03448275862069" fill="#000000"/><rect x="606.8965517241379" y="606.8965517241379" width="27.586206896551722" height="27.586206896551722" rx="11.03448275862069" fill="#000000"/><rect x="662.0689655172414" y="606.8965517241379" width="27.586206896551722" height="27.586206896551722" rx="11.03448275862069" fill="#000000"/><rect x="772.4137931034483" y="606.8965517241379" width="27.586206896551722" height="27.586206896551722" rx="11.03448275862069" fill="#000000"/><rect x="0" y="634.4827586206897" width="27.586206896551722" height="27.586206896551722" rx="13.793103448275861" fill="#0969DA"/><rect x="165.51724137931035" y="634.4827586206897" width="27.586206896551722" height="27.586206896551722" rx="13.793103448275861" fill="#0969DA"/><rect x="220.68965517241378" y="634.4827586206897" width="27.586206896551722" height="27.586206896551722" rx="11.03448275862069" fill="#000000"/><rect x="275.8620689655172" y="634.4827586206897" width="27.586206896551722" height="27.586206896551722" rx="11.03448275862069" fill="#000000"/><rect x="358.6206896551724" y="634.4827586206897" width="27.586206896551722" height="27.586206896551722" rx="11.03448275862069" fill="#000000"/><rect x="468.9655172413793" y="634.4827586206897" width="27.586206896551722" height="27.586206896551722" rx="11.03448275862069" fill="#000000"/><rect x="496.551724137931" y="634.4827586206897" width="27.586206896551722" height="27.586206896551722" rx="11.03448275862069" fill="#000000"/><rect x="524.1379310344827" y="634.4827586206897" width="27.586206896551722" height="27.586206896551722" rx="11.03448275862069" fill="#000000"/><rect x="551.7241379310344" y="634.4827586206897" width="27.586206896551722" height="27.586206896551722" rx="11.03448275862069" fill="#000000"/><rect x="662.0689655172414" y="634.4827586206897" width="27.586206896551722" height="27.586206896551722" rx="11.03448275862069" fill="#000000"/><rect x="689.655172413793" y="634.4827586206897" width="27.586206896551722" height="27.586206896551722" rx="11.03448275862069" fill="#000000"/><rect x="744.8275862068965" y="634.4827586206897" width="27.586206896551722" height="27.586206896551722" rx="11.03448275862069" fill="#000000"/><rect x="772.4137931034483" y="634.4827586206897" width="27.586206896551722" height="27.586206896551722" rx="11.03448275862069" fill="#000000"/><rect x="0" y="662.0689655172414" width="27.586206896551722" height="27.586206896551722" rx="13.793103448275861" fill="#0969DA"/><rect x="55.172413793103445" y="662.0689655172414" width="27.586206896551722" height="27.586206896551722" rx="13.793103448275861" fill="#0969DA"/><rect x="82.75862068965517" y="662.0689655172414" width="27.586206896551722" height="27.586206896551722" rx="13.793103448275861" fill="#0969DA"/><rect x="110.34482758620689" y="662.0689655172414" width="27.586206896551722" height="27.586206896551722" rx="13.793103448275861" fill="#0969DA"/><rect x="165.51724137931035" y="662.0689655172414" width="27.586206896551722" height="27.586206896551722" rx="13.793103448275861" fill="#0969DA"/><rect x="220.68965517241378" y="662.0689655172414" width="27.586206896551722" height="27.586206896551722" rx="11.03448275862069" fill="#000000"/><rect x="248.2758620689655" y="662.0689655172414" width="27.586206896551722" height="27.586206896551722" rx="11.03448275862069" fill="#000000"/><rect x="275.8620689655172" y="662.0689655172414" width="27.586206896551722" height="27.586206896551722" rx="11.03448275862069" fill="#000000"/><rect x="303.44827586206895" y="662.0689655172414" width="27.586206896551722" height="27.586206896551722" rx="11.03448275862069" fill="#000000"/><rect x="358.6206896551724" y="662.0689655172414" width="27.586206896551722" height="27.586206896551722" rx="11.03448275862069" fill="#000000"/><rect x="413.7931034482758" y="662.0689655172414" width="27.586206896551722" height="27.586206896551722" rx="11.03448275862069" fill="#000000"/><rect x="441.37931034482756" y="662.0689655172414" width="27.586206896551722" height="27.586206896551722" rx="11.03448275862069" fill="#000000"/><rect x="496.551724137931" y="662.0689655172414" width="27.586206896551722" height="27.586206896551722" rx="11.03448275862069" fill="#000000"/><rect x="524.1379310344827" y="662.0689655172414" width="27.586206896551722" height="27.586206896551722" rx="11.03448275862069" fill="#000000"/><rect x="551.7241379310344" y="662.0689655172414" width="27.586206896551722" height="27.586206896551722" rx="11.03448275862069" fill="#000000"/><rect x="579.3103448275862" y="662.0689655172414" width="27.586206896551722" height="27.586206896551722" rx="11.03448275862069" fill="#000000"/><rect x="606.8965517241379" y="662.0689655172414" width="27.586206896551722" height="27.586206896551722" rx="11.03448275862069" fill="#000000"/><rect x="634.4827586206897" y="662.0689655172414" width="27.586206896551722" height="27.586206896551722" rx="11.03448275862069" fill="#000000"/><rect x="662.0689655172414" y="662.0689655172414" width="27.586206896551722" height="27.586206896551722" rx="11.03448275862069" fill="#000000"/><rect x="772.4137931034483" y="662.0689655172414" width="27.586206896551722" height="27.586206896551722" rx="11.03448275862069" fill="#000000"/><rect x="0" y="689.655172413793" width="27.586206896551722" height="27.586206896551722" rx="13.793103448275861" fill="#0969DA"/><rect x="55.172413793103445" y="689.655172413793" width="27.586206896551722" height="27.586206896551722" rx="13.793103448275861" fill="#0969DA"/><rect x="82.75862068965517" y="689.655172413793" width="27.586206896551722" height="27.586206896551722" rx="13.793103448275861" fill="#0969DA"/><rect x="110.34482758620689" y="689.655172413793" width="27.586206896551722" height="27.586206896551722" rx="13.793103448275861" fill="#0969DA"/><rect x="165.51724137931035" y="689.655172413793" width="27.586206896551722" height="27.586206896551722" rx="13.793103448275861" fill="#0969DA"/><rect x="275.8620689655172" y="689.655172413793" width="27.586206896551722" height="27.586206896551722" rx="11.03448275862069" fill="#000000"/><rect x="303.44827586206895" y="689.655172413793" width="27.586206896551722" height="27.586206896551722" rx="11.03448275862069" fill="#000000"/><rect x="331.0344827586207" y="689.655172413793" width="27.586206896551722" height="27.586206896551722" rx="11.03448275862069" fill="#000000"/><rect x="358.6206896551724" y="689.655172413793" width="27.586206896551722" height="27.586206896551722" rx="11.03448275862069" fill="#000000"/><rect x="413.7931034482758" y="689.655172413793" width="27.586206896551722" height="27.586206896551722" rx="11.03448275862069" fill="#000000"/><rect x="496.551724137931" y="689.655172413793" width="27.586206896551722" height="27.586206896551722" rx="11.03448275862069" fill="#000000"/><rect x="634.4827586206897" y="689.655172413793" width="27.586206896551722" height="27.586206896551722" rx="11.03448275862069" fill="#000000"/><rect x="689.655172413793" y="689.655172413793" width="27.586206896551722" height="27.586206896551722" rx="11.03448275862069" fill="#000000"/><rect x="717.2413793103448" y="689.655172413793" width="27.586206896551722" height="27.586206896551722" rx="11.03448275862069" fill="#000000"/><rect x="744.8275862068965" y="689.655172413793" width="27.586206896551722" height="27.586206896551722" rx="11.03448275862069" fill="#000000"/><rect x="0" y="717.2413793103448" width="27.586206896551722" height="27.586206896551722" rx="13.793103448275861" fill="#0969DA"/><rect x="55.172413793103445" y="717.2413793103448" width="27.586206896551722" height="27.586206896551722" rx="13.793103448275861" fill="#0969DA"/><rect x="82.75862068965517" y="717.2413793103448" width="27.586206896551722" height="27.586206896551722" rx="13.793103448275861" fill="#0969DA"/><rect x="110.34482758620689" y="717.2413793103448" width="27.586206896551722" height="27.586206896551722" rx="13.793103448275861" fill="#0969DA"/><rect x="165.51724137931035" y="717.2413793103448" width="27.586206896551722" height="27.586206896551722" rx="13.793103448275861" fill="#0969DA"/><rect x="331.0344827586207" y="717.2413793103448" width="27.586206896551722" height="27.586206896551722" rx="11.03448275862069" fill="#000000"/><rect x="358.6206896551724" y="717.2413793103448" width="27.586206896551722" height="27.586206896551722" rx="11.03448275862069" fill="#000000"/><rect x="386.2068965517241" y="717.2413793103448" width="27.586206896551722" height="27.586206896551722" rx="11.03448275862069" fill="#000000"/><rect x="413.7931034482758" y="717.2413793103448" width="27.586206896551722" height="27.586206896551722" rx="11.03448275862069" fill="#000000"/><rect x="441.37931034482756" y="717.2413793103448" width="27.586206896551722" height="27.586206896551722" rx="11.03448275862069" fill="#000000"/><rect x="468.9655172413793" y="717.2413793103448" width="27.586206896551722" height="27.586206896551722" rx="11.03448275862069" fill="#000000"/><rect x="496.551724137931" y="717.2413793103448" width="27.586206896551722" height="27.586206896551722" rx="11.03448275862069" fill="#000000"/><rect x="524.1379310344827" y="717.2413793103448" width="27.586206896551722" height="27.586206896551722" rx="11.03448275862069" fill="#000000"/><rect x="551.7241379310344" y="717.2413793103448" width="27.586206896551722" height="27.586206896551722" rx="11.03448275862069" fill="#000000"/><rect x="579.3103448275862" y="717.2413793103448" width="27.586206896551722" height="27.586206896551722" rx="11.03448275862069" fill="#000000"/><rect x="689.655172413793" y="717.2413793103448" width="27.586206896551722" height="27.586206896551722" rx="11.03448275862069" fill="#000000"/><rect x="717.2413793103448" y="717.2413793103448" width="27.586206896551722" height="27.586206896551722" rx="11.03448275862069" fill="#000000"/><rect x="744.8275862068965" y="717.2413793103448" width="27.586206896551722" height="27.586206896551722" rx="11.03448275862069" fill="#000000"/><rect x="772.4137931034483" y="717.2413793103448" width="27.586206896551722" height="27.586206896551722" rx="11.03448275862069" fill="#000000"/><rect x="0" y="744.8275862068965" width="27.586206896551722" height="27.586206896551722" rx="13.793103448275861" fill="#0969DA"/><rect x="165.51724137931035" y="744.8275862068965" width="27.586206896551722" height="27.586206896551722" rx="13.793103448275861" fill="#0969DA"/><rect x="331.0344827586207" y="744.8275862068965" width="27.586206896551722" height="27.586206896551722" rx="11.03448275862069" fill="#000000"/><rect x="386.2068965517241" y="744.8275862068965" width="27.586206896551722" height="27.586206896551722" rx="11.03448275862069" fill="#000000"/><rect x="441.37931034482756" y="744.8275862068965" width="27.586206896551722" height="27.586206896551722" rx="11.03448275862069" fill="#000000"/><rect x="468.9655172413793" y="744.8275862068965" width="27.586206896551722" height="27.586206896551722" rx="11.03448275862069" fill="#000000"/><rect x="524.1379310344827" y="744.8275862068965" width="27.586206896551722" height="27.586206896551722" rx="11.03448275862069" fill="#000000"/><rect x="579.3103448275862" y="744.8275862068965" width="27.586206896551722" height="27.586206896551722" rx="11.03448275862069" fill="#000000"/><rect x="606.8965517241379" y="744.8275862068965" width="27.586206896551722" height="27.586206896551722" rx="11.03448275862069" fill="#000000"/><rect x="634.4827586206897" y="744.8275862068965" width="27.586206896551722" height="27.586206896551722" rx="11.03448275862069" fill="#000000"/><rect x="689.655172413793" y="744.8275862068965" width="27.586206896551722" height="27.586206896551722" rx="11.03448275862069" fill="#000000"/><rect x="744.8275862068965" y="744.8275862068965" width="27.586206896551722" height="27.586206896551722" rx="11.03448275862069" fill="#000000"/><rect x="772.4137931034483" y="744.8275862068965" width="27.586206896551722" height="27.586206896551722" rx="11.03448275862069" fill="#000000"/><rect x="0" y="772.4137931034483" width="27.586206896551722" height="27.586206896551722" rx="13.793103448275861" fill="#0969DA"/><rect x="27.586206896551722" y="772.4137931034483" width="27.586206896551722" height="27.586206896551722" rx="13.793103448275861" fill="#0969DA"/><rect x="55.172413793103445" y="772.4137931034483" width="27.586206896551722" height="27.586206896551722" rx="13.793103448275861" fill="#0969DA"/><rect x="82.75862068965517" y="772.4137931034483" width="27.586206896551722" height="27.586206896551722" rx="13.793103448275861" fill="#0969DA"/><rect x="110.34482758620689" y="772.4137931034483" width="27.586206896551722" height="27.586206896551722" rx="13.793103448275861" fill="#0969DA"/><rect x="137.9310344827586" y="772.4137931034483" width="27.586206896551722" height="27.586206896551722" rx="13.793103448275861" fill="#0969DA"/><rect x="165.51724137931035" y="772.4137931034483" width="27.586206896551722" height="27.586206896551722" rx="13.793103448275861" fill="#0969DA"/><rect x="275.8620689655172" y="772.4137931034483" width="27.586206896551722" height="27.586206896551722" rx="11.03448275862069" fill="#000000"/><rect x="303.44827586206895" y="772.4137931034483" width="27.586206896551722" height="27.586206896551722" rx="11.03448275862069" fill="#000000"/><rect x="358.6206896551724" y="772.4137931034483" width="27.586206896551722" height="27.586206896551722" rx="11.03448275862069" fill="#000000"/><rect x="386.2068965517241" y="772.4137931034483" width="27.586206896551722" height="27.586206896551722" rx="11.03448275862069" fill="#000000"/><rect x="524.1379310344827" y="772.4137931034483" width="27.586206896551722" height="27.586206896551722" rx="11.03448275862069" fill="#000000"/><rect x="551.7241379310344" y="772.4137931034483" width="27.586206896551722" height="27.586206896551722" rx="11.03448275862069" fill="#000000"/><rect x="579.3103448275862" y="772.4137931034483" width="27.586206896551722" height="27.586206896551722" rx="11.03448275862069" fill="#000000"/><rect x="662.0689655172414" y="772.4137931034483" width="27.586206896551722" height="27.586206896551722" rx="11.03448275862069" fill="#000000"/><rect x="689.655172413793" y="772.4137931034483" width="27.586206896551722" height="27.586206896551722" rx="11.03448275862069" fill="#000000"/><rect x="744.8275862068965" y="772.4137931034483" width="27.586206896551722" height="27.586206896551722" rx="11.03448275862069" fill="#000000"/></g></svg>